<svg width="180" height="180" viewBox="0 0 180 180" fill="none" xmlns="http://www.w3.org/2000/svg">
<g clip-path="url(#clip0_1268_213)">
<rect width="180" height="180" rx="20" fill="#1E1E1E"/>
<path d="M142.666 88.6104C142.761 88.495 143.111 88.4313 143.111 88.5283C143.11 88.5534 143.03 88.7254 142.933 88.9131C142.836 89.1012 142.716 89.5164 142.665 89.834C142.614 90.1512 142.51 90.5072 142.432 90.625C142.355 90.7431 142.231 91.1042 142.155 91.4277C142.08 91.7512 141.94 92.1501 141.845 92.3135C141.749 92.4774 141.644 92.7743 141.609 92.9736C141.575 93.1731 141.449 93.5072 141.33 93.7158C141.211 93.9237 141.113 94.1724 141.113 94.2686C141.113 94.3645 141.012 94.6312 140.89 94.8604C140.768 95.0901 140.606 95.4871 140.53 95.7432C140.454 95.9985 140.313 96.337 140.219 96.4951C140.123 96.6525 140.019 96.9297 139.987 97.1104C139.955 97.2904 139.848 97.5111 139.749 97.6006C139.65 97.6894 139.569 97.8124 139.569 97.875C139.569 97.937 139.451 98.2111 139.307 98.4834C139.164 98.7551 138.979 99.1852 138.894 99.4375C138.81 99.6898 138.685 99.9443 138.615 100.002C138.546 100.06 138.44 100.256 138.38 100.438C138.32 100.621 138.174 100.914 138.056 101.088C137.939 101.261 137.844 101.472 137.844 101.557C137.844 101.641 137.749 101.826 137.633 101.966C137.517 102.107 137.367 102.366 137.301 102.54C137.233 102.715 137.107 102.939 137.021 103.039C136.935 103.139 136.838 103.309 136.806 103.417C136.773 103.526 136.65 103.757 136.532 103.93C136.414 104.103 136.289 104.34 136.253 104.458C136.217 104.576 136.08 104.814 135.949 104.988C135.705 105.312 135.621 105.451 135.194 106.232C135.06 106.477 134.887 106.731 134.808 106.796C134.73 106.861 134.665 106.987 134.665 107.076C134.665 107.165 134.522 107.409 134.347 107.618C134.172 107.827 134.029 108.06 134.029 108.136C134.029 108.212 133.916 108.406 133.779 108.567C133.642 108.729 133.448 108.997 133.348 109.162C133.003 109.734 132.802 110.044 132.64 110.259C132.31 110.698 132.031 111.114 131.923 111.335C131.861 111.46 131.707 111.692 131.58 111.852C131.453 112.011 131.227 112.31 131.077 112.515C130.927 112.72 130.692 113.023 130.555 113.188C130.418 113.355 130.306 113.533 130.306 113.584C130.305 113.637 130.105 113.916 129.864 114.207C129.622 114.498 129.316 114.909 129.182 115.121C129.05 115.332 128.903 115.506 128.857 115.507C128.811 115.507 128.747 115.59 128.715 115.691C128.682 115.793 128.396 116.191 128.077 116.575C127.127 117.724 127.036 117.84 127.036 117.905C127.035 117.957 125.137 120.228 124.609 120.808C124.52 120.905 124.427 121.034 124.402 121.094C124.377 121.153 124.118 121.461 123.829 121.777C123.539 122.094 123.171 122.501 123.012 122.681C121.512 124.374 120.977 124.961 120.292 125.669C119.856 126.12 119.498 126.521 119.497 126.562C119.481 126.67 112.916 133.242 112.707 133.359C112.62 133.408 112.202 133.773 111.778 134.173C110.471 135.402 109.308 136.471 108.605 137.088C108.236 137.412 107.803 137.799 107.642 137.948C107.482 138.098 107.213 138.335 107.044 138.476C106.512 138.917 106.133 139.245 104.966 140.276C104.341 140.828 103.728 141.345 103.603 141.426C103.479 141.506 102.909 141.961 102.338 142.436C101.768 142.91 101.201 143.379 101.078 143.479C100.956 143.579 100.758 143.751 100.639 143.862C100.519 143.973 100.34 144.108 100.241 144.161C100.142 144.214 99.9688 144.341 99.8573 144.442C99.6501 144.63 99.248 144.943 98.4764 145.521C98.2424 145.695 97.7683 146.062 97.4227 146.336C97.0766 146.61 96.6292 146.958 96.4276 147.107C96.2259 147.257 95.8993 147.502 95.702 147.651C95.5046 147.801 95.1775 148.046 94.9754 148.195C94.7733 148.345 94.4423 148.6 94.2391 148.762C94.1157 148.86 93.9924 148.959 93.869 149.057L92.1288 149.079C88.9083 149.121 88.4361 149.06 88.7508 148.645C88.8247 148.546 88.953 148.262 89.036 148.014C89.119 147.764 89.2459 147.492 89.3192 147.408C89.3919 147.324 89.4905 147.084 89.5379 146.873C89.5854 146.663 89.6997 146.384 89.7918 146.255C89.884 146.125 90.0242 145.804 90.1024 145.54C90.1806 145.276 90.3286 144.943 90.4305 144.8C90.5329 144.657 90.617 144.44 90.617 144.317C90.6172 144.195 90.7387 143.865 90.8885 143.585C91.0382 143.305 91.1607 142.999 91.161 142.905C91.161 142.812 91.2776 142.514 91.4198 142.246C91.5621 141.978 91.7022 141.606 91.7313 141.422C91.76 141.238 91.8681 140.973 91.9715 140.833C92.0745 140.693 92.1948 140.38 92.2401 140.138C92.2849 139.896 92.4058 139.585 92.5077 139.447C92.6095 139.31 92.7211 139.039 92.7567 138.845C92.7924 138.651 92.9162 138.309 93.0321 138.085C93.1475 137.86 93.2846 137.486 93.3358 137.253C93.3876 137.02 93.532 136.636 93.6571 136.4C93.7821 136.165 93.8856 135.866 93.8856 135.736C93.8862 135.606 94.0088 135.255 94.1581 134.956C94.3074 134.657 94.4305 134.326 94.4305 134.222C94.4307 134.116 94.53 133.844 94.6512 133.617C94.7724 133.389 94.8994 133.007 94.9335 132.766C94.9669 132.525 95.0855 132.184 95.1971 132.01C95.3093 131.835 95.4297 131.51 95.4647 131.288C95.4998 131.066 95.6093 130.755 95.7079 130.596C95.7941 130.457 95.8999 130.157 95.9608 129.889L96.0067 129.663C96.0671 129.395 96.1716 129.096 96.2557 128.959C96.3403 128.821 96.4448 128.524 96.5057 128.256L96.5526 128.03C96.613 127.762 96.7179 127.462 96.8036 127.323C96.9011 127.165 97.0255 126.777 97.0799 126.463C97.1349 126.147 97.2711 125.705 97.3827 125.48C97.4802 125.284 97.5856 124.964 97.6346 124.722L97.6688 124.523C97.7114 124.315 97.7954 124.049 97.8817 123.853L97.9667 123.669C98.0664 123.44 98.1643 123.115 98.1961 122.898C98.2323 122.65 98.3362 122.304 98.4256 122.128C98.5146 121.952 98.6525 121.492 98.7323 121.105C98.8115 120.72 98.9412 120.304 99.0194 120.185C99.0981 120.065 99.2068 119.687 99.2596 119.347C99.313 119.005 99.4477 118.542 99.5604 118.317C99.6585 118.121 99.7581 117.78 99.7997 117.511L99.828 117.289C99.8695 117.021 99.967 116.689 100.062 116.502C100.171 116.288 100.297 115.86 100.341 115.551C100.38 115.28 100.477 114.902 100.568 114.653L100.646 114.456C100.738 114.208 100.835 113.834 100.873 113.567C100.917 113.263 101.038 112.818 101.14 112.58C101.244 112.342 101.367 111.852 101.413 111.491C101.454 111.176 101.552 110.762 101.645 110.504L101.724 110.303C101.818 110.045 101.917 109.632 101.958 109.316C102.004 108.956 102.123 108.472 102.223 108.242C102.324 108.012 102.435 107.543 102.472 107.2C102.507 106.856 102.628 106.33 102.739 106.031C102.851 105.731 102.989 105.092 103.046 104.61C103.103 104.129 103.229 103.55 103.325 103.324C103.422 103.099 103.544 102.532 103.597 102.066C103.648 101.6 103.773 100.983 103.872 100.694C103.972 100.406 104.095 99.7548 104.147 99.248C104.206 98.6788 104.292 98.2791 104.373 98.1973C104.463 98.1067 104.861 98.0427 105.666 97.9883C106.305 97.9451 107.005 97.8505 107.221 97.7793C107.437 97.7081 108.234 97.6053 108.991 97.5498C109.749 97.4937 110.84 97.351 111.414 97.2324C111.988 97.1144 112.887 96.9904 113.412 96.958C114.004 96.9208 114.508 96.8375 114.74 96.7373C114.946 96.6489 115.376 96.5485 115.694 96.5156C116.926 96.3879 117.659 96.2694 118.226 96.1055C118.551 96.0117 119.159 95.8917 119.577 95.8389C119.995 95.786 120.383 95.7063 120.439 95.6621C120.57 95.5597 121.294 95.4037 121.995 95.3271C122.295 95.2948 122.744 95.1892 122.994 95.0938C123.244 94.9978 123.755 94.8761 124.129 94.8232C124.503 94.7709 124.993 94.6484 125.215 94.5508C125.437 94.4532 125.907 94.3324 126.259 94.2822C126.611 94.2326 127.071 94.1096 127.279 94.0088C127.488 93.908 127.932 93.7832 128.265 93.7314C128.598 93.6797 129.082 93.5396 129.339 93.4199C129.596 93.3003 129.953 93.2017 130.133 93.2012C130.313 93.2011 130.651 93.0996 130.884 92.9756C131.117 92.8521 131.557 92.7102 131.862 92.6611C132.167 92.6121 132.58 92.4873 132.78 92.3838C132.98 92.2797 133.344 92.1567 133.588 92.1104C133.832 92.0639 134.249 91.9225 134.515 91.7969C134.782 91.6715 135.094 91.5686 135.21 91.5684C135.326 91.5684 135.593 91.4682 135.804 91.3447C136.013 91.2218 136.365 91.0948 136.583 91.0635C136.802 91.0322 137.091 90.9284 137.228 90.833C137.365 90.737 137.73 90.5939 138.04 90.5146C138.349 90.4354 138.71 90.2917 138.84 90.1963C138.97 90.1004 139.235 89.9957 139.431 89.9639C139.601 89.9364 139.848 89.8447 140.016 89.7471L140.15 89.6641C140.317 89.567 140.559 89.4716 140.723 89.4414C140.913 89.4073 141.211 89.2856 141.386 89.1709C141.561 89.0561 141.897 88.9112 142.133 88.8486C142.369 88.7861 142.609 88.6788 142.666 88.6104ZM53.1542 94.8652C53.2296 94.8361 53.4854 94.8822 53.7215 94.9668C54.2897 95.1706 55.1741 95.3722 55.5145 95.376C55.6648 95.3778 56.0938 95.4762 56.4676 95.5947C56.8423 95.7133 57.4552 95.8385 57.8299 95.873C58.2046 95.9081 58.8377 96.0339 59.2372 96.1514C59.6366 96.2694 60.4406 96.4091 61.0223 96.4619C61.6043 96.5142 62.2373 96.6242 62.4295 96.7051C62.622 96.7859 63.3516 96.908 64.0506 96.9775C64.7496 97.046 65.506 97.1634 65.7313 97.2373C66.0688 97.3473 67.7226 97.5408 69.5018 97.6777C69.7023 97.6928 69.9492 97.7498 70.0506 97.8037C70.1531 97.8582 71.3182 97.9702 72.6385 98.0527C73.9595 98.1352 75.2238 98.2582 75.4491 98.3262C75.717 98.407 76.8127 98.4837 78.6278 98.5479C80.1514 98.6012 81.6841 98.6621 82.034 98.6826C82.3836 98.7031 85.1627 98.7215 88.2098 98.7236C93.2011 98.7269 96.0085 98.6718 99.8368 98.4961C100.877 98.4482 101.129 98.4607 101.218 98.5654C101.368 98.7466 101.136 100.638 100.897 101.18C100.798 101.404 100.69 101.915 100.656 102.313C100.623 102.712 100.511 103.284 100.409 103.583C100.307 103.882 100.17 104.505 100.104 104.966C100.039 105.426 99.9185 105.934 99.8387 106.096C99.7584 106.256 99.6323 106.79 99.5585 107.281C99.4846 107.772 99.3602 108.297 99.2831 108.446C99.2054 108.596 99.0834 109.086 99.0106 109.536C98.9379 109.985 98.8152 110.474 98.7381 110.623C98.6616 110.772 98.5415 111.241 98.4725 111.666C98.404 112.09 98.2831 112.535 98.2049 112.655C98.1262 112.774 98.019 113.188 97.9657 113.573C97.9118 113.958 97.7852 114.435 97.6844 114.632C97.5836 114.829 97.4641 115.253 97.4188 115.573C97.3735 115.893 97.2337 116.37 97.1092 116.633C96.9848 116.895 96.8815 117.249 96.8797 117.419C96.8781 117.589 96.7941 117.952 96.6922 118.227C96.5904 118.501 96.4331 119.032 96.3436 119.405C96.2542 119.779 96.1171 120.208 96.0389 120.357C95.9613 120.507 95.8505 120.894 95.7928 121.215C95.7356 121.536 95.6072 121.956 95.5096 122.147C95.4115 122.339 95.2885 122.728 95.2362 123.011C95.1839 123.294 95.0666 123.672 94.9754 123.851C94.8843 124.029 94.7823 124.336 94.7489 124.533C94.6594 125.062 94.5142 125.507 94.3817 125.662C94.3176 125.737 94.2374 125.961 94.204 126.16C94.115 126.691 93.9699 127.139 93.8368 127.294C93.7721 127.369 93.6925 127.594 93.659 127.793C93.5706 128.32 93.4254 128.771 93.2938 128.927C93.2308 129.003 93.151 129.247 93.117 129.471C93.083 129.696 92.9596 130.083 92.8426 130.332C92.7262 130.582 92.5839 131.018 92.5262 131.302C92.4691 131.585 92.3487 131.911 92.2577 132.026C92.1671 132.142 92.0638 132.42 92.0282 132.645C91.9926 132.869 91.8801 133.215 91.7782 133.415C91.6769 133.615 91.5386 133.993 91.4696 134.256C91.4011 134.519 91.2854 134.825 91.2137 134.937C91.142 135.047 91.0164 135.404 90.9335 135.728C90.8612 136.011 90.7583 136.296 90.6893 136.413L90.6346 136.492C90.5656 136.609 90.4623 136.893 90.3895 137.175C90.306 137.497 90.1654 137.863 90.077 137.99C89.9886 138.117 89.8901 138.388 89.8583 138.593C89.8264 138.798 89.7031 139.145 89.5829 139.364C89.4633 139.583 89.3398 139.912 89.3075 140.094C89.2756 140.275 89.1691 140.525 89.0711 140.649C88.9736 140.773 88.847 141.094 88.7899 141.359C88.7327 141.625 88.5935 141.986 88.4803 142.162C88.3954 142.294 88.306 142.5 88.2528 142.679L88.1727 143.011C88.1183 143.189 88.0271 143.394 87.9393 143.525C87.823 143.699 87.6995 143.978 87.6649 144.143C87.6304 144.308 87.5043 144.614 87.3846 144.823C87.265 145.032 87.167 145.289 87.1659 145.395C87.1646 145.5 87.0649 145.733 86.9432 145.913C86.8208 146.093 86.6934 146.386 86.66 146.563C86.6265 146.741 86.5051 147.024 86.3915 147.191C86.2778 147.359 86.1551 147.633 86.119 147.8C86.0247 148.235 85.6562 148.932 85.4852 148.998C85.3925 149.034 85.2295 148.943 85.0311 148.745C84.8613 148.575 84.6419 148.412 84.5438 148.381C84.4463 148.35 84.3429 148.263 84.3143 148.189C84.2856 148.115 84.1796 148.024 84.079 147.987C83.8024 147.885 80.6156 144.968 78.8094 143.163C77.9349 142.29 76.5935 140.882 75.828 140.034C75.0625 139.186 74.3168 138.368 74.1708 138.216C74.0253 138.064 73.9057 137.908 73.9051 137.867C73.9051 137.827 73.5878 137.42 73.1991 136.965C72.4303 136.061 71.4876 134.898 71.2713 134.585C71.1964 134.477 70.9512 134.153 70.7264 133.867C70.2202 133.222 70.0887 133.039 69.4217 132.068C69.1285 131.641 68.8114 131.223 68.7176 131.139C68.6234 131.054 68.5474 130.938 68.5467 130.88C68.5467 130.822 68.3116 130.463 68.0243 130.08C67.7369 129.698 67.4005 129.213 67.2752 129.004C67.0752 128.669 66.6397 127.97 66.2958 127.431C66.2321 127.331 66.1096 127.133 66.0233 126.991C65.9376 126.849 65.7572 126.591 65.6219 126.417C65.4868 126.243 65.3479 126.012 65.3143 125.904C65.2809 125.796 65.1661 125.588 65.0604 125.44C64.9548 125.293 64.7876 125.02 64.6874 124.835C64.1532 123.842 64.0077 123.601 63.8768 123.492C63.7981 123.427 63.7333 123.303 63.7333 123.216C63.7331 123.129 63.6276 122.902 63.4979 122.712C63.3687 122.521 63.226 122.268 63.1805 122.148C63.1352 122.03 63.0003 121.803 62.8817 121.644C62.7784 121.504 62.6709 121.296 62.6219 121.148L62.5868 121.03C62.5374 120.885 62.4262 120.687 62.3202 120.561C62.2136 120.434 62.1241 120.271 62.1034 120.17L62.0936 120.093C62.0723 119.991 61.9799 119.824 61.87 119.693C61.7449 119.545 61.5802 119.247 61.5047 119.033C61.4293 118.819 61.3036 118.574 61.2254 118.487C61.1478 118.401 61.0444 118.158 60.9969 117.947C60.9494 117.736 60.8102 117.445 60.6874 117.3C60.5646 117.154 60.4639 116.942 60.4637 116.827C60.4637 116.713 60.3411 116.466 60.1913 116.277C60.0394 116.087 59.92 115.827 59.9198 115.688C59.9197 115.553 59.8184 115.293 59.6961 115.113C59.5733 114.933 59.4267 114.611 59.37 114.398C59.3134 114.185 59.1898 113.927 59.0965 113.826C59.0028 113.725 58.8815 113.432 58.826 113.175C58.7706 112.918 58.6672 112.66 58.5956 112.6C58.5233 112.54 58.3981 112.264 58.3172 111.987C58.2369 111.711 58.0741 111.302 57.9549 111.079C57.8365 110.856 57.7392 110.57 57.7391 110.442C57.7389 110.316 57.6374 110.066 57.5135 109.887C57.3895 109.708 57.2472 109.345 57.1971 109.081C57.1469 108.817 57.0256 108.5 56.9276 108.375C56.83 108.251 56.7226 107.958 56.6903 107.725C56.6573 107.491 56.5317 107.087 56.411 106.825C56.2903 106.564 56.1536 106.151 56.1073 105.907C56.0609 105.664 55.9401 105.305 55.8387 105.11C55.7369 104.916 55.6138 104.549 55.5653 104.295C55.5173 104.041 55.3978 103.675 55.2997 103.481C55.2015 103.288 55.0921 102.905 55.0565 102.631C55.0215 102.357 54.9018 101.949 54.7909 101.725C54.6793 101.5 54.5428 101.029 54.4862 100.677C54.4301 100.325 54.3197 99.9109 54.242 99.7549C54.1644 99.5996 54.044 99.1521 53.9745 98.7617C53.9049 98.3709 53.7673 97.8678 53.6698 97.6436C53.584 97.4467 53.4913 97.0642 53.4471 96.7393L53.4159 96.4688C53.3716 96.1442 53.2781 95.7648 53.1932 95.5723C52.9803 95.0914 52.9716 94.9348 53.1542 94.8652ZM14.16 78.9346C14.2499 78.7747 14.261 78.7749 14.4491 78.9463C14.5569 79.0444 14.7775 79.1915 14.9403 79.2734C15.0827 79.3454 15.2022 79.4344 15.2293 79.4854L15.2411 79.5225C15.2698 79.5686 15.3942 79.6379 15.5418 79.6865C15.7104 79.742 15.918 79.8638 16.0028 79.957C16.087 80.0503 16.2868 80.1777 16.4452 80.2402C16.604 80.3027 16.8089 80.4184 16.9012 80.4971C17.1047 80.6708 17.7989 81.0811 18.2323 81.2832C18.4069 81.3646 18.6114 81.4842 18.6864 81.5488C18.7617 81.6132 19.1902 81.8593 19.6395 82.0947C20.0892 82.3303 20.5398 82.5938 20.6395 82.6816C20.7393 82.7689 20.9845 82.893 21.1844 82.9561C21.3838 83.0192 21.6633 83.1677 21.8045 83.2852C21.9453 83.4021 22.1116 83.4974 22.1756 83.498C22.2392 83.498 22.4714 83.6199 22.6913 83.7686C22.911 83.9174 23.1565 84.0392 23.2372 84.04C23.3182 84.0417 23.5269 84.1392 23.702 84.2578C23.8767 84.3764 24.1661 84.5217 24.3446 84.5811C24.523 84.6398 24.7639 84.7611 24.8797 84.8506C24.9952 84.94 25.24 85.0627 25.4237 85.123C25.6079 85.1828 25.8531 85.3033 25.9686 85.3906C26.0839 85.4779 26.363 85.6018 26.5877 85.666C26.8125 85.7302 27.0783 85.8532 27.1786 85.9395C27.2783 86.0257 27.5341 86.1504 27.7469 86.2178C27.9597 86.2841 28.179 86.3936 28.2342 86.46C28.2897 86.5268 28.5245 86.6375 28.7557 86.707C28.9869 86.7766 29.36 86.94 29.5848 87.0693C29.8089 87.1986 30.0761 87.3049 30.1766 87.3057C30.2776 87.3062 30.5027 87.4008 30.6766 87.5156C30.8508 87.631 31.1691 87.7769 31.3836 87.8389C31.5988 87.9015 31.9617 88.0511 32.1913 88.1729C32.4208 88.2947 32.6952 88.394 32.8016 88.3945C32.9073 88.3945 33.1368 88.4878 33.3104 88.6016C33.4845 88.7159 33.8309 88.8612 34.0799 88.9248C34.3289 88.9884 34.5957 89.0975 34.6727 89.167C34.7495 89.2365 35.0495 89.3547 35.3387 89.4297C35.6282 89.5046 35.9956 89.6448 36.1542 89.7402C36.3127 89.8357 36.6061 89.9435 36.8055 89.9785C37.0055 90.0136 37.2915 90.1165 37.4413 90.207C37.5911 90.2976 37.9686 90.4359 38.2811 90.5146C38.593 90.5938 38.9433 90.7194 39.0585 90.7949C39.1737 90.8698 39.4804 90.9719 39.7401 91.0215C40 91.0705 40.4318 91.2142 40.6981 91.3398C40.9639 91.4647 41.2827 91.5681 41.4071 91.5684C41.5311 91.5684 41.8346 91.6708 42.0799 91.7959C42.3257 91.9209 42.7574 92.0606 43.0399 92.1064C43.3218 92.1528 43.7247 92.278 43.9344 92.3848C44.1441 92.4915 44.5676 92.6189 44.8749 92.668C45.1813 92.7165 45.5882 92.8355 45.7782 92.9336C45.9679 93.0317 46.3796 93.1481 46.6922 93.1924C47.0048 93.2366 47.4186 93.357 47.6112 93.46C47.8037 93.5629 48.1492 93.6715 48.3778 93.7012C49.2933 93.8208 49.6708 93.958 49.8934 94.249C50.0125 94.4054 50.1112 94.6147 50.1112 94.7139C50.1114 94.8144 50.1866 95.116 50.2792 95.3848C50.3713 95.6542 50.4754 96.1355 50.5116 96.4541C50.5471 96.7725 50.6567 97.2476 50.7547 97.5098C50.8529 97.7712 50.9913 98.3409 51.0614 98.7744C51.1315 99.2073 51.2562 99.6654 51.3387 99.791C51.4218 99.9177 51.5272 100.292 51.5741 100.623C51.6157 100.913 51.7114 101.282 51.7987 101.503L51.8719 101.674C51.9604 101.897 52.061 102.274 52.1083 102.573C52.1628 102.916 52.3077 103.385 52.4305 103.615C52.538 103.817 52.6274 104.1 52.6483 104.288L52.6581 104.437C52.6789 104.625 52.7683 104.906 52.8749 105.105C52.9967 105.334 53.139 105.752 53.1913 106.035C53.2441 106.318 53.3653 106.678 53.4618 106.835C53.5577 106.991 53.6807 107.361 53.7352 107.656C53.7891 107.951 53.8961 108.288 53.9715 108.402C54.0464 108.517 54.1646 108.831 54.2352 109.101C54.3053 109.37 54.4691 109.814 54.5985 110.087C54.7273 110.359 54.8329 110.683 54.8329 110.806C54.8329 110.928 54.9302 111.16 55.0487 111.32C55.1672 111.48 55.3123 111.852 55.37 112.146C55.4277 112.439 55.5349 112.728 55.6083 112.789C55.6816 112.85 55.7981 113.089 55.867 113.321C55.9361 113.554 56.0788 113.886 56.1844 114.059C56.2901 114.232 56.3768 114.438 56.3768 114.517C56.3774 114.595 56.482 114.86 56.6102 115.105C56.7379 115.35 56.9035 115.747 56.9774 115.984C57.0518 116.223 57.2125 116.565 57.3348 116.745C57.427 116.88 57.5059 117.039 57.5399 117.148L57.5751 117.328C57.6087 117.437 57.6873 117.594 57.7782 117.728C57.8994 117.906 58.0272 118.182 58.0624 118.343C58.0974 118.503 58.2201 118.746 58.3338 118.882C58.4338 119.001 58.5396 119.203 58.5887 119.361L58.6239 119.491C58.6662 119.627 58.7522 119.796 58.8397 119.918L58.9266 120.031C59.0283 120.175 59.1243 120.387 59.1522 120.536C59.1841 120.706 59.2888 120.915 59.3836 121.001C59.4791 121.087 59.6011 121.324 59.6561 121.526C59.7105 121.729 59.8504 122.007 59.9657 122.144C60.0815 122.281 60.2024 122.513 60.2342 122.658C60.2667 122.804 60.3713 122.993 60.4667 123.079C60.5615 123.165 60.6868 123.384 60.745 123.565C60.8026 123.746 60.9017 123.955 60.9647 124.03C61.0279 124.105 61.1964 124.386 61.3397 124.654C61.8675 125.646 61.9678 125.819 62.1678 126.092C62.2799 126.244 62.3718 126.43 62.3719 126.504C62.372 126.577 62.4353 126.692 62.5145 126.757C62.5736 126.806 62.6791 126.953 62.7772 127.122L62.9647 127.467C63.0628 127.635 63.1684 127.783 63.2274 127.832C63.306 127.897 63.3699 128.005 63.37 128.069C63.3701 128.135 63.4727 128.309 63.5975 128.457C63.723 128.606 63.8762 128.844 63.9383 128.987C64.0003 129.13 64.1248 129.348 64.2137 129.472C64.6728 130.108 64.8368 130.36 64.9823 130.652C65.1354 130.961 65.25 131.124 65.8846 131.922C66.0441 132.122 66.1998 132.366 66.2313 132.465C66.2625 132.563 66.3287 132.644 66.3778 132.645C66.4267 132.645 66.5156 132.758 66.576 132.898C66.6892 133.162 66.9295 133.496 67.4344 134.088C67.5965 134.277 67.7299 134.478 67.7303 134.531C67.7303 134.584 67.8527 134.762 68.0028 134.926C68.1525 135.09 68.2737 135.255 68.2743 135.292C68.2756 135.331 68.5218 135.645 68.8202 135.992C69.1191 136.339 69.3639 136.65 69.3651 136.685C69.3651 136.717 69.4693 136.873 69.5965 137.03C70.3164 137.914 71.6202 139.472 72.0272 139.934C72.2859 140.227 72.5413 140.544 72.5936 140.639C72.6881 140.805 75.1349 143.41 76.5858 144.886C77.6053 145.924 79.4527 147.666 79.8065 147.924C80.4885 148.42 80.3114 148.619 79.287 148.506C78.9253 148.466 78.5952 148.412 78.5526 148.386C78.3561 148.266 76.717 147.969 76.2499 147.969C75.9329 147.969 75.4611 147.879 75.0575 147.744C74.6898 147.621 74.037 147.48 73.6073 147.432C73.1777 147.383 72.6411 147.258 72.4129 147.154C72.1854 147.051 71.6893 146.928 71.3114 146.88C70.9335 146.832 70.4938 146.735 70.3348 146.664C69.8521 146.45 69.4432 146.337 69.1473 146.336C68.9921 146.335 68.6514 146.235 68.3905 146.113C68.129 145.992 67.6995 145.852 67.4364 145.804C67.1734 145.755 66.7338 145.61 66.4588 145.482C66.2189 145.371 65.9379 145.277 65.7879 145.254L65.6756 145.243C65.5255 145.22 65.246 145.126 65.0057 145.014C64.7308 144.886 64.2829 144.74 64.0106 144.689C63.7383 144.639 63.4178 144.521 63.2977 144.427C63.178 144.333 62.9301 144.23 62.7479 144.198C62.5657 144.166 62.2446 144.046 62.035 143.932C61.8249 143.817 61.4921 143.698 61.2948 143.664C61.098 143.631 60.8041 143.506 60.6434 143.388C60.4828 143.269 60.2231 143.145 60.0672 143.111C59.9109 143.077 59.5492 142.931 59.2635 142.788C58.9787 142.645 58.6887 142.529 58.618 142.528C58.548 142.528 58.3846 142.445 58.2547 142.343C58.1577 142.266 57.9606 142.167 57.7655 142.092L57.3827 141.96C57.1879 141.885 56.9927 141.787 56.8973 141.712C56.7703 141.612 56.6078 141.53 56.536 141.53C56.4637 141.53 56.2247 141.409 56.0047 141.26C55.813 141.13 55.6015 141.02 55.4979 140.994L55.4227 140.982C55.3191 140.956 55.1074 140.846 54.9149 140.716C54.695 140.567 54.4467 140.444 54.3631 140.443C54.2794 140.442 54.088 140.339 53.9383 140.214C53.7886 140.088 53.5311 139.939 53.3651 139.884C53.1986 139.828 52.9372 139.69 52.784 139.577C52.631 139.464 52.3652 139.305 52.1932 139.225C52.0216 139.144 51.6564 138.937 51.3817 138.765C51.1073 138.592 50.739 138.385 50.5643 138.305C50.3897 138.224 50.1444 138.065 50.0194 137.951C49.895 137.836 49.6914 137.712 49.5663 137.675C49.4412 137.638 49.2118 137.499 49.0565 137.369C48.7984 137.152 48.5762 137.007 47.9325 136.634C47.8031 136.559 47.4585 136.319 47.1668 136.102C46.8752 135.883 46.5477 135.659 46.4393 135.603C46.3314 135.546 46.1221 135.407 45.9745 135.293C45.8267 135.179 45.4409 134.893 45.117 134.658C44.7931 134.424 44.4555 134.16 44.367 134.072C44.2792 133.985 44.1649 133.914 44.1131 133.914C44.0604 133.914 43.709 133.658 43.3319 133.347C42.7243 132.846 41.7907 132.093 41.119 131.562C39.6418 130.396 34.9836 125.886 33.2821 123.976C32.8428 123.482 32.2526 122.825 31.9706 122.516C31.6893 122.206 31.4205 121.88 31.3729 121.79C31.326 121.701 31.2103 121.545 31.117 121.445C30.9542 121.272 30.7098 120.967 29.9686 120.013C29.7827 119.773 29.5388 119.49 29.4266 119.384C29.3139 119.278 29.2215 119.142 29.2215 119.08C29.2207 119.018 29.0882 118.803 28.9266 118.601C28.7644 118.398 28.5091 118.065 28.3592 117.861C28.2094 117.658 27.9743 117.357 27.8368 117.19C27.6998 117.025 27.5876 116.848 27.5868 116.796C27.5868 116.745 27.4541 116.537 27.2918 116.335C26.7484 115.658 26.4969 115.297 26.4969 115.19C26.4968 115.132 26.3983 114.992 26.2772 114.879C26.1565 114.766 26.0053 114.544 25.9422 114.387C25.879 114.229 25.7337 113.986 25.618 113.845C25.5024 113.704 25.4058 113.542 25.4032 113.482C25.401 113.424 25.2789 113.234 25.1307 113.062C24.9833 112.889 24.8624 112.701 24.8622 112.644C24.8621 112.586 24.7714 112.423 24.66 112.282C24.549 112.141 24.3624 111.839 24.246 111.612C23.9457 111.025 23.7545 110.696 23.534 110.384C23.4284 110.234 23.3115 110.009 23.2743 109.885C23.2371 109.76 23.1346 109.576 23.0467 109.477C22.8254 109.226 22.6827 108.932 22.6825 108.727C22.6824 108.631 22.601 108.478 22.5008 108.388C22.4006 108.297 22.2696 108.056 22.2108 107.853C22.1515 107.649 22.0123 107.37 21.9012 107.234C21.8038 107.115 21.6999 106.914 21.6512 106.756L21.6161 106.626C21.5742 106.491 21.491 106.323 21.4051 106.203L21.3182 106.091C21.2179 105.951 21.1203 105.745 21.0887 105.603C21.0531 105.439 20.9484 105.208 20.8553 105.09C20.7621 104.971 20.6398 104.706 20.5848 104.501C20.5292 104.296 20.4044 104.017 20.3075 103.881C20.2104 103.744 20.0702 103.403 19.9969 103.122C19.9236 102.84 19.7839 102.509 19.6864 102.385C19.5883 102.261 19.4816 102.014 19.4481 101.836C19.4147 101.659 19.2911 101.371 19.1737 101.198C19.0556 101.025 18.9588 100.773 18.9588 100.639C18.9586 100.504 18.8566 100.194 18.7323 99.9492C18.6072 99.7039 18.4422 99.2581 18.3651 98.96C18.2881 98.662 18.1677 98.3297 18.0965 98.2217C18.0259 98.1139 17.9033 97.746 17.8241 97.4053C17.7448 97.064 17.6179 96.6886 17.5418 96.5732C17.4653 96.456 17.3629 96.1103 17.3133 95.8037C17.2699 95.5347 17.1697 95.207 17.078 95.0205L17.0018 94.8779C16.9109 94.6898 16.8139 94.3538 16.7743 94.0762C16.7295 93.7581 16.6082 93.3001 16.5047 93.0586C16.4142 92.8478 16.3082 92.4406 16.2518 92.0957L16.2098 91.8096C16.1536 91.4657 16.0479 91.0638 15.9569 90.8594C15.8529 90.626 15.7325 90.1089 15.6893 89.71C15.6462 89.311 15.5245 88.7186 15.4188 88.3945C15.3132 88.0704 15.1849 87.3581 15.1336 86.8115C15.0819 86.2655 15.0009 85.7471 14.954 85.6582C14.8106 85.3897 14.6212 84.0568 14.5614 82.8965C14.5301 82.291 14.4487 81.5966 14.3797 81.3545C14.2703 80.969 14.2272 80.6666 14.0946 79.373C14.079 79.2234 14.1084 79.0264 14.16 78.9346ZM166 74.25C165.667 74.3168 165.644 74.4218 165.606 75.3047C165.583 75.8466 165.521 77.0243 165.469 77.9219C165.417 78.8194 165.352 80.0637 165.325 80.6875C165.298 81.3107 165.239 82.0248 165.193 82.2744C164.895 83.9069 164.829 84.3611 164.777 85.124C164.749 85.5391 164.662 86.07 164.571 86.4004L164.493 86.6572C164.401 86.9883 164.307 87.5268 164.272 87.9414C164.227 88.4811 164.13 88.9585 164.013 89.2178C163.91 89.4459 163.786 89.9775 163.738 90.3994C163.69 90.8216 163.567 91.3793 163.465 91.6387C163.362 91.8976 163.234 92.3849 163.181 92.7217C163.127 93.0579 163.005 93.5094 162.91 93.7246C162.815 93.9397 162.691 94.3692 162.637 94.6787C162.582 94.9876 162.458 95.4048 162.362 95.6064C162.266 95.808 162.148 96.1845 162.098 96.4443C162.049 96.704 161.948 97.0097 161.874 97.123C161.799 97.2357 161.674 97.6079 161.595 97.9492C161.515 98.2905 161.393 98.6578 161.322 98.7656C161.251 98.8736 161.125 99.2255 161.043 99.5488C160.96 99.8723 160.818 100.229 160.728 100.344C160.639 100.458 160.538 100.723 160.504 100.934C160.47 101.144 160.349 101.459 160.234 101.634C160.119 101.808 159.976 102.163 159.916 102.422C159.856 102.681 159.75 102.941 159.68 102.999C159.609 103.057 159.492 103.306 159.419 103.552C159.346 103.797 159.204 104.102 159.103 104.23C159.003 104.358 158.892 104.612 158.858 104.794C158.824 104.976 158.703 105.267 158.589 105.441C158.475 105.616 158.354 105.881 158.319 106.031C158.285 106.181 158.166 106.425 158.056 106.575C157.945 106.725 157.825 106.965 157.79 107.109C157.754 107.253 157.629 107.498 157.513 107.653C157.396 107.809 157.273 108.065 157.239 108.224C157.205 108.382 157.116 108.563 157.04 108.627C156.963 108.69 156.806 108.928 156.69 109.154C156.575 109.381 156.336 109.833 156.16 110.157C155.983 110.481 155.752 110.916 155.645 111.123C155.553 111.304 155.414 111.511 155.316 111.619L155.241 111.693C155.161 111.781 155.101 111.9 155.101 111.978C155.101 112.066 155.003 112.254 154.885 112.395C154.765 112.536 154.601 112.795 154.52 112.969C154.439 113.143 154.281 113.413 154.17 113.569C154.058 113.726 153.884 113.991 153.784 114.157C153.684 114.323 153.521 114.586 153.421 114.741C153.321 114.896 153.157 115.158 153.057 115.323C152.957 115.489 152.763 115.756 152.626 115.917C152.489 116.079 152.376 116.252 152.376 116.303C152.375 116.354 152.276 116.512 152.155 116.653C151.772 117.103 151.288 117.771 151.287 117.852C151.287 117.894 151.186 118.047 151.063 118.19C150.94 118.335 150.725 118.602 150.586 118.784C150.447 118.966 150.177 119.313 149.988 119.555C149.798 119.796 149.524 120.158 149.378 120.357C148.918 120.984 147.594 122.554 146.728 123.497C146.563 123.677 146.314 123.963 146.176 124.132C145.186 125.336 141.58 128.922 140.391 129.886C140.169 130.066 139.945 130.268 139.892 130.337C139.84 130.405 139.667 130.554 139.507 130.668C139.279 130.83 137.791 132.065 136.663 133.028C136.587 133.093 136.383 133.245 136.209 133.365C136.034 133.486 135.668 133.775 135.393 134.009C135.119 134.242 134.802 134.462 134.689 134.497C134.577 134.532 134.484 134.593 134.484 134.632C134.483 134.672 134.29 134.83 134.053 134.986C133.815 135.142 133.439 135.413 133.214 135.587C132.989 135.762 132.682 135.967 132.532 136.044C132.382 136.12 132.014 136.364 131.715 136.587C131.415 136.809 131.047 137.049 130.897 137.12C130.747 137.191 130.484 137.356 130.312 137.486C130.14 137.616 129.951 137.722 129.891 137.722C129.832 137.722 129.73 137.787 129.665 137.865C129.556 137.996 129.386 138.098 128.299 138.689C128.099 138.798 127.873 138.941 127.795 139.007C127.656 139.125 127.124 139.415 126.31 139.815C126.086 139.926 125.861 140.071 125.811 140.137C125.761 140.202 125.538 140.319 125.316 140.396C125.122 140.464 124.909 140.567 124.805 140.64L124.729 140.698C124.625 140.771 124.414 140.873 124.222 140.94C124.029 141.008 123.818 141.11 123.715 141.184L123.64 141.243C123.536 141.316 123.324 141.417 123.132 141.485C122.94 141.553 122.728 141.655 122.625 141.728L122.55 141.787C122.446 141.86 122.234 141.961 122.042 142.029C121.822 142.106 121.579 142.226 121.502 142.295C121.424 142.364 121.177 142.469 120.953 142.528C120.729 142.588 120.441 142.712 120.312 142.803C120.184 142.894 119.958 142.999 119.811 143.034C119.664 143.069 119.317 143.211 119.04 143.35C118.762 143.488 118.383 143.63 118.198 143.664C118.014 143.699 117.764 143.805 117.643 143.899C117.522 143.994 117.206 144.112 116.94 144.162C116.674 144.212 116.347 144.334 116.213 144.432C116.078 144.53 115.779 144.652 115.548 144.704C115.316 144.756 114.935 144.894 114.702 145.011C114.469 145.127 114.076 145.249 113.83 145.281C113.584 145.314 113.246 145.421 113.078 145.52C112.911 145.618 112.533 145.737 112.24 145.784C111.947 145.832 111.544 145.952 111.345 146.054C111.17 146.143 110.813 146.251 110.502 146.312L110.241 146.359C109.931 146.421 109.576 146.527 109.406 146.614C109.21 146.714 108.714 146.837 108.304 146.889C107.944 146.933 107.501 147.034 107.246 147.125L107.051 147.202C106.796 147.292 106.357 147.389 106.003 147.43C105.598 147.476 105.006 147.598 104.686 147.7C104.367 147.803 103.661 147.927 103.119 147.979C102.576 148.029 102.026 148.112 101.895 148.161C101.494 148.314 100.315 148.512 99.8133 148.512C99.1924 148.512 99.1923 148.363 99.8133 147.964C100.076 147.795 100.692 147.329 101.182 146.929C102.067 146.207 102.343 145.998 102.983 145.569C103.165 145.447 103.329 145.315 103.347 145.275C103.391 145.183 105.711 143.236 106.178 142.892L106.296 142.811C106.452 142.694 106.868 142.338 107.298 141.952C107.789 141.511 108.348 141.023 108.54 140.865C109.604 139.989 111.773 138.049 113.717 136.236C114.838 135.191 121.252 128.814 121.571 128.428C121.687 128.287 122.151 127.781 122.601 127.303C123.052 126.825 123.524 126.318 123.651 126.178C125.045 124.631 125.758 123.826 125.948 123.582C126.073 123.421 126.399 123.033 126.674 122.72C127.097 122.237 127.549 121.696 128.718 120.27C128.818 120.148 129.022 119.881 129.172 119.677C129.322 119.472 129.689 119.007 129.989 118.643C130.557 117.951 130.707 117.758 131.082 117.229C131.206 117.055 131.449 116.729 131.624 116.504C132.056 115.948 132.402 115.458 132.64 115.067C132.75 114.887 132.898 114.698 132.967 114.647C133.036 114.596 133.211 114.375 133.356 114.155C133.502 113.935 133.682 113.667 133.758 113.559C134.412 112.618 134.646 112.274 134.803 112.021C134.902 111.858 135.148 111.489 135.348 111.2C135.692 110.703 135.934 110.321 136.347 109.624C136.447 109.456 136.614 109.211 136.72 109.08C136.825 108.95 136.939 108.753 136.973 108.646C137.008 108.538 137.156 108.298 137.304 108.112C137.451 107.927 137.572 107.721 137.572 107.657C137.572 107.593 137.669 107.426 137.787 107.285C137.905 107.144 138.03 106.937 138.065 106.824C138.101 106.712 138.224 106.507 138.338 106.37C138.452 106.233 138.594 105.974 138.653 105.793C138.712 105.612 138.836 105.394 138.93 105.31C139.023 105.225 139.128 105.047 139.161 104.914C139.194 104.78 139.314 104.548 139.429 104.398C139.542 104.249 139.667 104.025 139.706 103.9C139.745 103.776 139.872 103.559 139.989 103.42C140.106 103.28 140.244 103.009 140.296 102.818C140.347 102.627 140.448 102.422 140.52 102.362C140.592 102.302 140.7 102.103 140.76 101.92C140.819 101.737 140.945 101.478 141.04 101.343C141.134 101.208 141.258 100.963 141.313 100.799C141.369 100.635 141.486 100.398 141.573 100.272C141.66 100.147 141.78 99.865 141.84 99.6445C141.899 99.4241 142.04 99.118 142.154 98.9648C142.268 98.8117 142.388 98.5498 142.419 98.3838C142.45 98.2177 142.553 97.9725 142.648 97.8389C142.743 97.7057 142.867 97.4285 142.922 97.2236C142.977 97.0188 143.099 96.7543 143.192 96.6357C143.285 96.5166 143.409 96.2009 143.466 95.9336C143.523 95.6656 143.645 95.3386 143.738 95.207C143.831 95.076 143.938 94.8255 143.974 94.6514C144.012 94.4766 144.137 94.1304 144.254 93.8809C144.37 93.6318 144.51 93.224 144.565 92.9766C144.621 92.7286 144.743 92.4015 144.838 92.249C144.932 92.0965 145.049 91.727 145.098 91.4268C145.146 91.1267 145.267 90.7401 145.366 90.5674C145.466 90.3954 145.576 90.0293 145.61 89.7549C145.645 89.4805 145.777 88.9954 145.903 88.6768C146.029 88.3576 146.162 87.8498 146.198 87.5479C146.242 87.1715 146.313 86.9686 146.422 86.9033C146.509 86.8503 146.79 86.6748 147.046 86.5127C147.301 86.3513 147.573 86.2178 147.65 86.2168C147.727 86.2152 147.97 86.0936 148.19 85.9453C148.41 85.7965 148.658 85.6748 148.741 85.6748C148.804 85.6746 148.948 85.6064 149.099 85.5098L149.4 85.3008C149.55 85.2038 149.692 85.134 149.753 85.1328C149.834 85.1317 150.012 85.0419 150.149 84.9346C150.399 84.7378 150.796 84.5082 151.563 84.1143C151.791 83.9978 152.093 83.8118 152.234 83.7002C152.376 83.5895 152.537 83.4976 152.593 83.4961C152.649 83.4943 152.855 83.3717 153.051 83.2236C153.247 83.0754 153.456 82.9542 153.515 82.9541C153.574 82.9539 153.768 82.8419 153.945 82.7051C154.122 82.5677 154.4 82.3742 154.563 82.2744C155.094 81.9494 155.422 81.7368 155.956 81.3682C156.245 81.1687 156.613 80.923 156.773 80.8232C157.09 80.6263 157.953 80.0391 158.406 79.7119C158.562 79.5992 158.852 79.399 159.052 79.2666C159.252 79.1339 159.668 78.8183 159.976 78.5645C160.284 78.3112 160.724 77.9662 160.953 77.7979C161.182 77.6297 161.481 77.394 161.618 77.2754C161.756 77.1571 162.175 76.8052 162.549 76.4922C163.307 75.8583 163.455 75.7254 164.515 74.7412C165.14 74.1597 165.314 74.047 165.628 74.0146C165.751 74.0022 165.876 73.9905 166 73.9775V74.25ZM51.4627 53.9961C51.6952 53.7169 54.1419 53.8619 55.0575 54.209C55.2031 54.2645 55.9383 54.3323 56.6903 54.3604C57.4429 54.3889 58.4267 54.4721 58.8758 54.5449C60.3495 54.7821 60.9418 54.8419 62.7811 54.9395C65.3404 55.0758 66.2119 55.1505 66.3573 55.2432C66.4264 55.2879 66.7492 55.3167 67.0731 55.3076C67.3972 55.299 67.9866 55.3388 68.3827 55.3965C68.6224 55.4315 68.8626 55.4669 69.1024 55.502C69.7745 56.1789 70.4459 56.8563 71.118 57.5332C72.2265 58.65 73.2365 59.6898 73.3622 59.8438C73.4875 59.9976 74.067 60.6183 74.6502 61.2236C75.8137 62.4307 77.4028 64.1188 78.6747 65.5C79.1242 65.9878 79.7424 66.6415 80.0487 66.9521C80.3549 67.2624 80.6415 67.5829 80.6874 67.6641C80.7858 67.8391 81.4757 68.6224 83.4305 70.7793C83.7118 71.0897 84.0521 71.4772 84.1864 71.6406C84.7891 72.3732 85.0466 72.6783 85.2391 72.8896C85.353 73.0143 85.6726 73.3807 85.9491 73.7051C86.6629 74.5402 87.1813 75.1333 87.4012 75.3652C87.5052 75.4746 87.6278 75.6318 87.6737 75.7148C87.7195 75.7979 87.9511 76.0839 88.1883 76.3496C88.4257 76.6162 89.0306 77.3236 89.534 77.9219C90.7994 79.4271 90.8345 79.4693 91.4491 80.2344C92.0474 80.9792 92.4374 81.4479 92.8202 81.8818C92.9403 82.0181 93.0411 82.1555 93.0643 82.2109L93.0751 82.2471C93.0982 82.3014 93.1991 82.4326 93.3192 82.5625C93.4567 82.7113 93.6362 82.9573 93.7176 83.1094C93.8206 83.3002 93.9883 83.4255 94.2616 83.5166C94.6393 83.6427 94.6557 83.6631 94.6288 83.9717C94.6061 84.2342 94.6574 84.3564 94.9022 84.6152C95.0682 84.7905 95.3266 85.1022 95.4764 85.3076C95.7734 85.7157 96.3086 86.396 96.6327 86.7783C96.7459 86.9115 96.9412 87.1676 97.0663 87.3477C97.4534 87.9046 98.0582 88.7004 98.2938 88.9629C98.4178 89.1009 98.5194 89.2589 98.5194 89.3145C98.52 89.3694 98.6313 89.5502 98.7684 89.7158C98.9058 89.8818 99.141 90.1839 99.2909 90.3877C99.4408 90.5915 99.6627 90.884 99.784 91.0371C99.9053 91.1901 100.069 91.4265 100.147 91.5635C100.489 92.1576 100.669 92.4301 100.903 92.7051C101.041 92.8661 101.153 93.0372 101.153 93.0869C101.153 93.1354 101.279 93.3348 101.433 93.5283C101.588 93.7224 101.77 94.0135 101.838 94.1758C102.114 94.8358 102.515 94.2781 102.515 93.2334C102.516 92.6571 102.587 92.0613 102.794 90.9336C102.844 90.6586 102.946 89.6793 103.02 88.7568C103.095 87.8351 103.194 86.7953 103.241 86.4453C103.462 84.8178 103.463 84.4458 103.245 84.0938C102.858 83.4685 102.187 83.2938 101.173 83.5566C101.008 83.5992 99.5069 83.6234 97.8368 83.6094C96.8243 83.6013 95.8116 83.5921 94.7997 83.584C94.8164 83.4413 94.8328 83.298 94.8495 83.1553C94.8776 82.9196 95.0199 82.487 95.1659 82.1934C95.5206 81.4791 95.5294 80.8457 95.1903 80.25C95.0574 80.0163 94.0869 78.9481 93.0331 77.876C91.9796 76.8036 90.3715 75.1676 89.4598 74.2402C88.5497 73.314 87.8051 72.5177 87.8026 72.4678C87.8031 72.3147 88.0147 72.1641 88.2303 72.1641C88.3462 72.164 88.6711 72.0409 88.952 71.8916C89.2321 71.7422 89.5139 71.6207 89.579 71.6201C89.6431 71.62 89.7855 71.507 89.8944 71.3701C90.0679 71.1526 90.0864 71.0446 90.0438 70.5215C90.0168 70.1915 89.9117 69.6403 89.8114 69.2969C89.7111 68.9539 89.5859 68.1499 89.5331 67.5117C89.4797 66.8729 89.379 66.2407 89.3094 66.1064C89.1811 65.859 89.1353 65.6292 89.1542 65.3408C89.1692 65.1075 89.668 65.1357 90.1639 65.3975C90.3882 65.516 90.7967 65.6605 91.0711 65.7188C91.3447 65.7764 91.6594 65.8843 91.7723 65.957C91.8839 66.0303 92.2457 66.1529 92.5751 66.2295C92.9036 66.3054 93.2481 66.4144 93.3407 66.4717C93.7515 66.7278 94.8182 66.0837 94.912 65.5225C94.9935 65.0365 95.3853 64.277 95.5897 64.208C95.6479 64.1886 95.7591 64.3068 95.8368 64.4727C95.9689 64.7546 96.2084 65.1232 96.5858 65.624C96.8397 65.9608 97.0058 66.2064 97.202 66.5361C97.3023 66.7038 97.4896 66.9674 97.62 67.1221C97.7499 67.2768 97.9098 67.5053 97.9745 67.6299C98.2913 68.2376 99.2144 69.2612 99.4481 69.2627C99.7327 69.2627 100.137 68.9779 100.255 68.6943C100.382 68.3872 100.3 65.6437 100.146 65.0459C100.003 64.4873 99.8739 63.0337 99.8065 61.2373C99.7731 60.3406 99.7109 59.5537 99.6688 59.4883C99.6248 59.4193 99.6398 59.3144 99.7049 59.2363C99.8457 59.0684 100.106 59.1435 100.481 59.459C100.636 59.5894 100.881 59.7658 101.026 59.8516C101.171 59.9367 101.392 60.0904 101.517 60.1934C101.65 60.3006 101.947 60.4036 102.222 60.4365C102.683 60.4909 102.706 60.4815 103.018 60.1514C103.401 59.7465 104.021 58.8381 104.565 57.8828C104.65 57.733 104.836 57.4763 104.979 57.3125C105.123 57.1488 105.239 56.9606 105.239 56.8936C105.239 56.8262 105.304 56.7175 105.383 56.6523C105.461 56.5868 105.609 56.3684 105.711 56.166C105.813 55.9628 105.969 55.715 106.058 55.6152C106.147 55.5155 106.235 55.357 106.253 55.2627C106.27 55.1684 106.358 55.0457 106.449 54.9902C106.678 54.8508 107.017 55.253 107.104 55.7686C107.14 55.9829 107.267 56.3004 107.386 56.4746C107.504 56.6487 107.601 56.8777 107.601 56.9834C107.601 57.089 107.703 57.3672 107.828 57.6016C107.953 57.8356 108.101 58.2196 108.157 58.4541C108.214 58.6886 108.352 59.0438 108.465 59.2432C108.577 59.4425 108.699 59.7465 108.737 59.9189C108.838 60.3867 109.202 60.7798 109.798 61.0645C109.975 61.149 110.153 61.2338 110.33 61.3184C110.497 61.2364 110.663 61.1556 110.83 61.0742C111.104 60.9402 111.405 60.8294 111.501 60.8291C111.596 60.829 111.796 60.7275 111.944 60.6025C112.245 60.3499 112.665 60.3034 112.746 60.5127C112.775 60.5881 112.751 60.7073 112.694 60.7764C112.637 60.8454 112.548 61.1602 112.497 61.4756C112.446 61.7908 112.327 62.1734 112.233 62.3262C112.139 62.4783 112.016 62.8877 111.961 63.2354C111.906 63.5824 111.781 64.022 111.682 64.2119C111.584 64.4011 111.467 64.8233 111.421 65.1484C111.374 65.4737 111.27 65.8409 111.188 65.9658C111.107 66.0898 110.977 66.526 110.9 66.9336C110.823 67.3417 110.682 67.8276 110.588 68.0137C110.493 68.1993 110.373 68.6548 110.321 69.0264C110.244 69.5795 110.252 69.762 110.363 70.0283C110.512 70.3829 110.792 70.5371 111.125 70.4482C111.339 70.3891 112.567 69.2529 114.552 67.2793C115.189 66.6441 115.636 66.2674 115.715 66.2969C115.787 66.3244 115.864 66.5335 115.894 66.7842C116.002 67.6663 116.211 68.2028 116.57 68.5166C116.757 68.6803 116.991 68.8471 117.092 68.8877C117.311 68.9761 119.071 68.8441 119.453 68.7109C119.603 68.6587 120.107 68.5584 120.573 68.4873C121.814 68.2981 121.989 68.4477 121.536 69.3145C121.408 69.5602 121.223 70.0388 121.125 70.3789C121.027 70.719 120.889 71.0869 120.818 71.1953C120.748 71.3043 120.645 71.593 120.591 71.8369C120.536 72.0811 120.413 72.3898 120.318 72.5225C120.224 72.6556 120.121 72.8847 120.09 73.0312C120.058 73.1775 119.991 73.4674 119.938 73.6748C119.787 74.2764 119.957 74.6565 120.506 74.9336C120.75 75.0581 120.952 75.1965 120.952 75.2412C120.952 75.2865 121.095 75.3701 121.269 75.4277C121.696 75.5679 121.714 75.9105 121.307 76.1348C121.154 76.2201 120.754 76.4982 120.418 76.752C120.083 77.0064 119.702 77.2716 119.573 77.3418C119.444 77.4113 119.119 77.6356 118.851 77.8398C118.583 78.0442 118.228 78.281 118.063 78.3662C117.898 78.4513 117.694 78.5827 117.609 78.6582C117.401 78.8437 116.72 79.331 116.359 79.5537C116.197 79.6535 115.83 79.8983 115.542 80.0977C115.254 80.297 114.941 80.5069 114.847 80.5625C114.753 80.6187 114.594 80.7513 114.495 80.8574C114.396 80.9635 114.259 81.0498 114.19 81.0498C114.122 81.0504 113.888 81.1956 113.672 81.373C113.119 81.8258 113.077 81.8674 112.765 82.2744C112.672 82.3951 112.579 82.5155 112.486 82.6367C112.499 82.9687 112.511 83.3022 112.524 83.6348C112.553 84.3976 112.6 84.6905 112.725 84.8818C112.865 85.0932 112.871 85.1543 112.768 85.2783C112.611 85.4654 111.819 85.3956 111.164 85.1387C110.915 85.0405 110.451 84.9324 110.133 84.8984C109.814 84.8639 109.267 84.7413 108.918 84.626C108.568 84.5107 107.946 84.374 107.534 84.3223C107.122 84.271 106.672 84.1708 106.533 84.0996C106.161 83.9071 105.203 83.74 104.849 83.8057C104.643 83.8445 104.45 83.977 104.265 84.2061C103.994 84.5429 103.989 84.5723 103.888 86.1318C103.831 87.0025 103.747 88.0611 103.702 88.4854C103.657 88.9095 103.574 89.684 103.518 90.208C103.433 91.0178 103.27 93.3632 103.213 94.6064C103.207 94.7272 103.202 94.848 103.196 94.9688C103.055 94.9591 102.913 94.9491 102.772 94.9395C102.397 94.913 102.319 94.9411 102.106 95.1797C101.927 95.3803 101.755 95.4649 101.44 95.5059C101.055 95.5555 98.7861 95.6601 95.2577 95.791C94.5381 95.8174 93.8771 95.8774 93.7879 95.9248C93.5534 96.0477 83.6203 96.0395 83.2958 95.916C83.1582 95.8643 82.4091 95.8042 81.6317 95.7832C78.9128 95.7099 75.7627 95.5602 75.0418 95.4707C74.6423 95.4206 73.9882 95.3396 73.5887 95.29C73.1891 95.2404 72.208 95.1599 71.409 95.1104C69.963 95.0209 69.295 94.9299 68.7752 94.752C68.6254 94.7007 67.8687 94.6188 67.0946 94.5703C66.3206 94.5223 65.565 94.4352 65.4149 94.377C65.044 94.233 63.6965 94.0172 63.1668 94.0166C62.9296 94.0166 62.3568 93.9163 61.8954 93.7939C61.4334 93.6721 60.6168 93.5281 60.0799 93.4736C59.5435 93.4203 58.9297 93.3025 58.7167 93.2119C58.5042 93.1213 58.0091 93.0184 57.6161 92.9834C57.2236 92.9483 56.5851 92.8191 56.1981 92.6973C55.8107 92.575 55.2335 92.4489 54.9149 92.417C54.5963 92.3852 54.0738 92.2636 53.7557 92.1455C53.4378 92.028 53.0183 91.9307 52.8231 91.9307C52.4037 91.9307 52.3247 91.7947 52.3026 91.0244C52.2945 90.75 52.1894 90.1787 52.0692 89.7549C51.9382 89.2945 51.8278 88.6009 51.7938 88.0322C51.7625 87.5087 51.6819 86.8967 51.6151 86.6719C51.4248 86.033 51.3014 85.0928 51.2469 83.8613C51.2194 83.2385 51.1555 82.5652 51.1053 82.3652C50.8735 81.4412 50.6784 78.5489 50.618 75.1104C50.6046 74.3619 50.552 73.7612 50.4901 73.6436C50.3489 73.3807 50.345 66.3015 50.4852 66.0605C50.5379 65.968 50.594 65.2753 50.6112 64.5195C50.6667 62.0986 50.8217 59.0818 50.9247 58.4268C51.1343 57.0953 51.2127 56.3948 51.2752 55.2881C51.3178 54.5435 51.3826 54.0938 51.4627 53.9961ZM143.173 63.8799C143.546 63.569 144.099 63.3839 144.194 63.5381C144.235 63.6043 144.296 64.0921 144.331 64.623C144.365 65.1545 144.434 65.7736 144.482 65.998C144.531 66.2224 144.607 66.6924 144.652 67.041C144.697 67.3896 144.756 67.7559 144.784 67.8564C144.812 67.9562 144.861 68.9765 144.892 70.123C145.044 75.6736 144.87 80.6893 144.503 81.3682C144.449 81.4693 144.376 81.9838 144.341 82.5127C144.306 83.0424 144.205 83.7472 144.119 84.0791C143.975 84.6327 143.923 84.7126 143.482 85.043C143.199 85.2554 142.902 85.4023 142.757 85.4023C142.621 85.4024 142.374 85.503 142.206 85.627C142.038 85.7504 141.689 85.9132 141.429 85.9893C141.169 86.0646 140.908 86.1846 140.848 86.2568C140.788 86.3285 140.541 86.4297 140.299 86.4814C140.057 86.5332 139.706 86.6795 139.519 86.8057C139.333 86.9318 139.09 87.0342 138.979 87.0342C138.868 87.0343 138.548 87.1569 138.267 87.3066C138.022 87.437 137.751 87.5468 137.619 87.5723L137.523 87.584C137.392 87.6095 137.121 87.7197 136.876 87.8506C136.595 88.0003 136.254 88.1228 136.118 88.123C135.982 88.123 135.773 88.1971 135.654 88.2881C135.386 88.4935 135.195 88.5661 134.635 88.6729C134.394 88.7187 134.086 88.8338 133.952 88.9297C133.817 89.0251 133.467 89.1482 133.173 89.2021C132.879 89.2566 132.502 89.38 132.337 89.4775C132.171 89.5751 131.786 89.7003 131.481 89.7559C131.177 89.8109 130.777 89.9327 130.594 90.0254C130.41 90.1181 130.015 90.2424 129.716 90.3018C129.416 90.3616 129.048 90.4736 128.898 90.5518C128.748 90.6294 128.323 90.7458 127.954 90.8105C127.585 90.8758 127.124 91.0115 126.931 91.1123C126.736 91.2131 126.345 91.3195 126.058 91.3486C125.772 91.3783 125.289 91.4983 124.984 91.6152C124.68 91.7322 124.171 91.8579 123.853 91.8936C123.536 91.9297 123.049 92.0505 122.772 92.1621C122.495 92.2742 121.983 92.3956 121.633 92.4307C121.283 92.4662 120.818 92.5718 120.6 92.665C120.383 92.7588 119.831 92.8816 119.375 92.9365C118.918 92.9915 118.251 93.1352 117.893 93.2549C117.534 93.3751 117.026 93.4725 116.759 93.4736C116.492 93.4742 115.744 93.5973 115.098 93.7461C114.453 93.8949 113.722 94.0166 113.475 94.0166C113.229 94.0166 112.49 94.1358 111.835 94.2803C111.179 94.4253 110.213 94.568 109.689 94.5977C109.165 94.6273 108.511 94.6939 108.236 94.7451C107.53 94.8772 106.843 94.9868 106.068 95.0908C104.95 95.2412 104.895 95.1147 105.739 94.334C106.063 94.0342 107.647 92.5082 109.258 90.9424C113.142 87.1668 114.535 85.8512 115.676 84.8818C115.896 84.6942 116.263 84.3566 116.493 84.1318C116.722 83.907 117.278 83.399 117.727 83.002C118.176 82.6052 118.795 82.0544 119.101 81.7783C119.408 81.5023 119.733 81.215 119.825 81.1406C120.25 80.7936 122.912 78.4812 122.995 78.3877C123.045 78.3299 123.328 78.0998 123.625 77.876C123.921 77.6517 124.248 77.386 124.351 77.2852C124.454 77.1837 124.825 76.8733 125.175 76.5947C125.524 76.3162 125.964 75.9502 126.153 75.7812C126.342 75.612 126.661 75.3515 126.861 75.2021C127.061 75.0523 127.548 74.6648 127.941 74.3408C128.335 74.0168 128.806 73.6485 128.986 73.5234C129.44 73.2102 130.029 72.755 130.777 72.1406C131.126 71.8548 131.467 71.6207 131.535 71.6201C131.602 71.62 131.711 71.5446 131.776 71.4531C131.841 71.361 131.981 71.2402 132.087 71.1846C132.192 71.1284 132.574 70.8364 132.935 70.5352C133.296 70.2346 133.633 69.9876 133.684 69.9873C133.736 69.9873 133.906 69.884 134.062 69.7568C134.881 69.0923 135.146 68.8996 135.248 68.8994C135.309 68.8993 135.456 68.7973 135.573 68.6729C135.69 68.548 135.824 68.4466 135.87 68.4463C135.916 68.4456 136.121 68.3032 136.325 68.1289C136.529 67.9551 136.743 67.8119 136.802 67.8115C136.86 67.8115 136.981 67.7309 137.07 67.6328C137.16 67.5342 137.319 67.426 137.425 67.3926C137.531 67.3594 137.777 67.1948 137.973 67.0273C138.17 66.8604 138.368 66.7238 138.415 66.7236C138.461 66.7234 138.62 66.6213 138.768 66.4971C138.916 66.3728 139.095 66.271 139.164 66.2705C139.233 66.2705 139.425 66.1536 139.59 66.0107C139.753 65.8681 139.989 65.7197 140.114 65.6807C140.239 65.6424 140.457 65.5146 140.598 65.3965C140.739 65.279 140.886 65.1833 140.926 65.1826C140.965 65.1826 141.152 65.06 141.341 64.9102C141.506 64.7794 141.69 64.6691 141.783 64.6436L141.85 64.6318C141.943 64.6063 142.128 64.4967 142.294 64.3662C142.483 64.2164 142.701 64.0938 142.777 64.0938C142.853 64.0937 143.031 63.9974 143.173 63.8799ZM19.4784 44.6953C19.5393 44.2428 19.7088 44.1428 19.9852 44.3955C20.0952 44.4957 20.2879 44.6079 20.4129 44.6445C20.5376 44.6818 20.8007 44.8294 20.9979 44.9727C21.195 45.1159 21.419 45.2339 21.4969 45.2354C21.5746 45.237 21.7957 45.3579 21.9881 45.5029C22.1798 45.6484 22.4532 45.7918 22.5946 45.8232C22.7358 45.854 22.9009 45.9395 22.9608 46.0117C23.021 46.0835 23.2871 46.2052 23.5516 46.2822C23.8157 46.3588 24.1295 46.4972 24.2469 46.5898C24.3647 46.682 24.6283 46.8015 24.8319 46.8564C25.0356 46.9115 25.2996 47.0292 25.4188 47.1182C25.5374 47.2071 25.8388 47.3319 26.0877 47.3955C26.3366 47.4591 26.602 47.5664 26.6776 47.6338C26.7532 47.7012 27.0611 47.825 27.3602 47.9102C27.6599 47.9948 28.0287 48.1367 28.1786 48.2246C28.328 48.3124 28.6135 48.4137 28.8133 48.4482C29.0128 48.4833 29.3466 48.6045 29.5536 48.7188C29.7601 48.8336 30.1284 48.9565 30.371 48.9922C30.6136 49.0273 30.9753 49.1494 31.1747 49.2637C31.3747 49.3779 31.7692 49.5007 32.0516 49.5352C32.334 49.5691 32.7219 49.6768 32.9139 49.7744C33.0583 49.848 33.3268 49.9346 33.5838 49.9941L34.0799 50.0918C34.3359 50.1515 34.6019 50.2384 34.743 50.3115C34.9309 50.4096 35.4148 50.5471 35.8172 50.6172C36.2196 50.6873 36.6764 50.8104 36.8329 50.8906C36.9887 50.971 37.4265 51.0805 37.8065 51.1328C38.1386 51.179 38.6522 51.295 39.0252 51.4043L39.3192 51.4941C39.6608 51.5947 40.0385 51.6709 40.2098 51.6709C40.4057 51.671 40.9009 51.7775 41.3104 51.9062C41.7206 52.0356 42.4071 52.177 42.8368 52.2207C43.2657 52.2649 43.852 52.3818 44.1395 52.4805C44.4274 52.5791 44.9182 52.6842 45.2303 52.7139C46.0546 52.7926 46.9191 52.9385 47.3866 53.0781C47.6114 53.145 47.9665 53.2265 48.1756 53.2588C48.7184 53.3424 48.7922 53.4691 48.6112 54C48.5217 54.2644 48.4264 55.0121 48.3719 55.8877C48.3229 56.685 48.2467 57.4728 48.203 57.6396C48.1594 57.8055 48.145 57.9958 48.1708 58.0635C48.1966 58.1309 48.155 58.4287 48.079 58.7246C47.838 59.6657 47.709 63.507 47.7069 69.7617C47.7047 75.9698 47.8384 80.0941 48.0702 80.9141C48.1408 81.1637 48.1969 81.5108 48.1942 81.6855C48.1835 82.4284 48.4071 84.7048 48.578 85.584C48.6793 86.108 48.8169 87.0865 48.8827 87.7598C48.9484 88.433 49.0881 89.2889 49.1932 89.6621C49.5113 90.7927 49.4293 91.1101 48.8778 90.8799C48.7102 90.8099 48.4593 90.7516 48.3202 90.751C48.1811 90.7504 47.8632 90.655 47.6131 90.5391C47.3635 90.4226 46.9418 90.2997 46.6766 90.2646C46.4115 90.2296 45.9829 90.1061 45.7235 89.9902C45.4648 89.8743 44.9865 89.7299 44.662 89.6689C44.3372 89.6086 43.9888 89.5057 43.8866 89.4404C43.7847 89.3752 43.4571 89.2723 43.159 89.2119C42.8614 89.151 42.4954 89.0285 42.3456 88.9385C42.2332 88.8716 41.9982 88.7863 41.7616 88.7227L41.2948 88.6123C41.0973 88.5589 40.9011 88.49 40.7762 88.4297L40.6454 88.3594C40.4704 88.2753 40.1556 88.1762 39.8934 88.125C39.5938 88.0668 39.2365 87.9388 39.0995 87.8418C38.9624 87.7442 38.6401 87.6256 38.3836 87.5771C38.1271 87.528 37.7894 87.4103 37.6336 87.3154C37.4778 87.2201 37.1668 87.0957 36.9422 87.0391C36.7174 86.9819 36.3487 86.8402 36.1239 86.7227C35.8992 86.6058 35.5436 86.4813 35.3329 86.4473C35.1222 86.4128 34.8551 86.3103 34.7391 86.2197C34.6238 86.1292 34.361 86.0101 34.1561 85.9551C33.9512 85.9001 33.6044 85.7573 33.3866 85.6387C33.1688 85.5201 32.8434 85.3975 32.6629 85.3662C32.4824 85.3344 32.2613 85.2275 32.1717 85.1289C32.0823 85.0304 31.9194 84.9495 31.8094 84.9492C31.6993 84.9492 31.388 84.8322 31.119 84.6904C30.8494 84.5476 30.4724 84.3799 30.2811 84.3174C30.0897 84.2553 29.7635 84.1077 29.5555 83.9893C29.3475 83.87 29.1111 83.7721 29.0301 83.7715C28.9496 83.7707 28.7359 83.6701 28.5555 83.5479C28.3749 83.4255 28.0522 83.2783 27.8387 83.2217C27.6259 83.1651 27.3691 83.0494 27.2694 82.9648C27.1945 82.901 27.0377 82.8156 26.8797 82.749L26.5692 82.6309C26.4114 82.5636 26.2544 82.4766 26.1795 82.4111C26.0793 82.324 25.8932 82.2285 25.7645 82.1982C25.6684 82.1756 25.5047 82.1011 25.3553 82.0156L25.0721 81.8398C24.9485 81.7684 24.8156 81.7047 24.7206 81.6719L24.6161 81.6396C24.4828 81.5936 24.2766 81.4874 24.1239 81.3838C23.9492 81.2657 23.6997 81.1418 23.5692 81.1094C23.4393 81.0764 23.2172 80.9539 23.076 80.8359C22.9349 80.7179 22.7172 80.5914 22.5926 80.5547C22.4676 80.5175 22.2224 80.394 22.0477 80.2803C21.7049 80.0565 21.4494 79.9174 20.7098 79.5508C20.449 79.4217 20.2134 79.2809 20.1854 79.2373C20.1584 79.1936 19.9124 79.0548 19.6385 78.9297C19.3652 78.8048 19.142 78.6629 19.1415 78.6143C19.1414 78.5652 18.9968 78.4776 18.8211 78.4199C18.6449 78.3617 18.3897 78.2212 18.2538 78.1074C18.1175 77.9938 17.9037 77.87 17.7792 77.8311C17.6541 77.7922 17.4448 77.6714 17.3143 77.5625C17.1834 77.4536 16.9482 77.3119 16.7918 77.2471C16.6355 77.1824 16.5067 77.0917 16.5067 77.0459C16.5058 76.9998 16.3327 76.8826 16.121 76.7842C15.7468 76.6101 15.4318 76.4076 14.7899 75.9307C14.62 75.8044 14.4274 75.7008 14.3622 75.7002C14.0667 75.7002 14.0111 75.3156 14.0008 73.1611C13.9949 71.989 14.0212 70.0101 14.0594 68.7637C14.1317 66.409 14.2328 65.2588 14.3934 64.9531C14.4452 64.8544 14.5349 64.1048 14.5926 63.2871C14.6502 62.4708 14.7158 61.7706 14.7391 61.7305C14.8228 61.5949 15.1281 59.8658 15.1815 59.2227C15.2117 58.862 15.3208 58.3559 15.4227 58.0977C15.5246 57.8395 15.6471 57.3096 15.6961 56.9209C15.7447 56.5328 15.8862 55.9053 16.0096 55.5273C16.1331 55.1489 16.2342 54.6839 16.2342 54.4941C16.2344 54.3048 16.3365 53.9501 16.4598 53.7061C16.5837 53.4618 16.7256 52.9701 16.7752 52.6123C16.8254 52.2544 16.9489 51.8214 17.0497 51.6504C17.1504 51.4799 17.2587 51.1392 17.2899 50.8936C17.3168 50.679 17.4124 50.3652 17.5135 50.1475L17.6014 49.9736C17.7029 49.7572 17.7997 49.4502 17.829 49.2441C17.8618 49.0087 17.9833 48.6443 18.0975 48.4346C18.2123 48.2249 18.3353 47.8771 18.371 47.6631C18.4066 47.4491 18.5322 47.083 18.6502 46.8496C18.7677 46.6168 18.907 46.2368 18.9588 46.0049C19.0111 45.7739 19.1372 45.4713 19.2401 45.332C19.3425 45.1934 19.4498 44.9066 19.4784 44.6953ZM154.627 59.5088C155.249 59.3013 157.734 59.329 158.474 59.5527C158.792 59.6481 159.283 59.7725 159.566 59.8291C159.85 59.8862 160.13 59.9908 160.19 60.0625C160.25 60.1341 160.454 60.2349 160.644 60.2861C160.835 60.3374 161.168 60.524 161.384 60.6992C162.023 61.2188 163.003 62.2008 163.134 62.4541C163.2 62.5828 163.34 62.7651 163.443 62.8584C163.546 62.9511 163.678 63.1707 163.736 63.3457C163.794 63.5209 163.938 63.8082 164.057 63.9834C164.176 64.1581 164.273 64.3835 164.273 64.4844C164.274 64.5854 164.373 64.8385 164.496 65.0469C164.618 65.2561 164.758 65.6675 164.806 65.9619C164.853 66.2557 164.981 66.762 165.091 67.0859C165.312 67.7416 165.494 69.6985 165.363 70.0215C165.239 70.325 162.557 72.8775 161.478 73.7197C161.265 73.8864 160.648 74.4 160.105 74.8613C159.563 75.322 159.075 75.6997 159.02 75.7002C158.966 75.7002 158.849 75.7742 158.76 75.8643C158.539 76.0867 157.246 77.0623 156.876 77.2871C156.534 77.4941 156.21 77.7284 155.797 78.0674C155.639 78.1973 155.4 78.3596 155.268 78.4297C155.136 78.4995 154.73 78.7553 154.366 78.9971C154.001 79.2391 153.639 79.4593 153.561 79.4863C153.484 79.5133 153.328 79.6189 153.216 79.7207C152.968 79.9428 152.462 80.2568 151.967 80.4951C151.767 80.5912 151.463 80.776 151.291 80.9053C151.119 81.0351 150.91 81.1416 150.828 81.1416C150.745 81.142 150.6 81.2281 150.506 81.334C150.41 81.4402 150.169 81.6052 149.969 81.7012C149.769 81.7972 149.361 82.0135 149.061 82.1816C148.762 82.3503 148.352 82.5666 148.151 82.6631C147.951 82.7596 147.731 82.9059 147.664 82.9873C147.498 83.1866 147.198 83.1792 147.2 82.9766C147.205 82.4668 147.402 81.0349 147.515 80.6875C147.69 80.1451 147.833 77.3346 147.834 74.4307C147.834 71.676 147.684 67.9985 147.552 67.5039C147.5 67.3098 147.442 66.962 147.423 66.7324C147.274 64.9428 147.088 63.4848 146.931 62.8809C146.711 62.037 146.721 62.1575 146.853 62.0264C146.913 61.9666 147.008 61.9181 147.063 61.918C147.119 61.9178 147.303 61.8163 147.471 61.6924C147.639 61.568 147.922 61.4405 148.1 61.4092C148.279 61.3779 148.602 61.2572 148.817 61.1396C149.033 61.0222 149.36 60.8991 149.544 60.8662C149.728 60.8328 150.048 60.7076 150.255 60.5879C150.462 60.4682 150.851 60.3455 151.118 60.3164C151.385 60.2867 151.802 60.1654 152.044 60.0469C152.336 59.904 152.78 59.799 153.361 59.7354C153.843 59.6826 154.412 59.5805 154.627 59.5088ZM53.869 41.9785C53.9768 41.889 54.0588 41.8956 54.2782 42.0088C54.4289 42.0868 54.5856 42.2046 54.6258 42.2715C54.6657 42.3378 54.7682 42.4312 54.8534 42.4775C54.9388 42.5236 55.2251 42.7509 55.4891 42.9814C57.5943 44.8181 58.4541 45.5517 58.6493 45.6768C58.9043 45.8407 59.24 46.1464 61.3036 48.0898C62.0971 48.8376 62.8372 49.5108 62.9491 49.5859C63.0601 49.6609 63.5024 50.0684 63.9305 50.4922C64.3584 50.9158 64.8978 51.4342 65.1297 51.6436C65.7938 52.2424 65.6906 52.4045 64.7616 52.2197C64.5217 52.1717 63.508 52.0899 62.5096 52.0371C60.5146 51.9315 58.952 51.7784 58.7401 51.6689C58.6652 51.6301 57.8883 51.5513 57.0145 51.4941C56.1405 51.4365 54.8937 51.2908 54.244 51.1689C53.5949 51.0476 52.7981 50.9373 52.4735 50.9238C51.9173 50.9017 51.8817 50.8876 51.8612 50.6738C51.8488 50.5494 51.879 50.3799 51.9286 50.2979C52.0542 50.0875 52.2883 48.9494 52.3827 48.0898C52.4263 47.6909 52.5454 47.1142 52.6473 46.8096C52.7492 46.5049 52.8692 45.9321 52.9139 45.5371C52.9581 45.1421 53.0606 44.6906 53.1415 44.5342C53.2229 44.3772 53.3501 43.8344 53.4266 43.3271C53.5695 42.3778 53.6378 42.1699 53.869 41.9785ZM32.8543 30C32.8543 30.2938 33.4294 30.4827 34.787 30.6348C35.2919 30.6919 35.7404 30.8027 36.0126 30.9385C36.2486 31.0565 36.6213 31.1804 36.8397 31.2139C37.0581 31.2473 37.4098 31.3761 37.62 31.499C37.8302 31.6224 38.1052 31.7226 38.2313 31.7227C38.357 31.7228 38.5992 31.816 38.7684 31.9297C38.9377 32.0434 39.2595 32.1901 39.4842 32.2559C39.7091 32.3211 39.9748 32.4477 40.0751 32.5361C40.1748 32.625 40.4196 32.749 40.619 32.8115C40.819 32.8735 41.0652 32.9957 41.1649 33.083C41.2653 33.1703 41.4947 33.289 41.6756 33.3467C41.8572 33.4049 42.0756 33.5301 42.162 33.625C42.2482 33.7198 42.4352 33.8241 42.577 33.8555C42.7189 33.8863 42.9865 34.0317 43.1708 34.1777C43.3544 34.3237 43.5612 34.4432 43.6288 34.4434C43.6801 34.4438 43.8291 34.524 43.9969 34.6377L44.3387 34.8838C44.5055 34.9974 44.6523 35.0781 44.7001 35.0781C44.7632 35.0783 44.8885 35.1602 44.9784 35.2598C45.0689 35.3595 45.1951 35.4404 45.2577 35.4404C45.3207 35.441 45.5338 35.5731 45.7323 35.7344C46.0811 36.019 46.4409 36.2561 46.9266 36.5176C47.0544 36.5866 47.262 36.735 47.3866 36.8477C47.5117 36.9603 47.736 37.1198 47.8856 37.2021C48.1751 37.3622 48.3878 37.5122 49.2362 38.1611C49.5288 38.3847 49.9211 38.6707 50.1083 38.7959C50.9502 39.3559 51.1136 39.4934 51.2635 39.7705C51.415 40.0491 51.4145 40.0803 51.2674 40.3594C51.1818 40.5211 51.086 40.8991 51.0536 41.1982C51.0212 41.4975 50.8977 41.9858 50.7792 42.2822C50.66 42.5793 50.5379 43.1095 50.5077 43.4609C50.4769 43.8123 50.3727 44.2834 50.2762 44.5078C50.1798 44.7322 50.0427 45.3448 49.9715 45.8682C49.8998 46.3916 49.7631 47.065 49.6688 47.3643C49.5745 47.6635 49.4483 48.3986 49.3885 48.9971C49.3179 49.7031 49.2331 50.132 49.1463 50.2207C48.9496 50.4218 48.1378 50.3774 47.0223 50.1035C46.4984 49.9747 45.771 49.8438 45.4071 49.8125C45.0427 49.7812 44.5116 49.6774 44.2264 49.582C43.9413 49.4861 43.3243 49.3625 42.8553 49.3086C42.3861 49.2547 41.8118 49.1361 41.578 49.0439C41.3451 48.9523 40.9519 48.8497 40.7049 48.8174C39.8901 48.7091 39.2613 48.5691 39.0116 48.4414C38.8762 48.3719 38.4462 48.2721 38.0575 48.2188C37.6683 48.1654 37.1695 48.0423 36.9491 47.9453C36.7285 47.8488 36.2591 47.7253 35.9051 47.6709C35.5516 47.6164 35.0992 47.4943 34.9012 47.3994C34.7033 47.304 34.3005 47.1871 34.0067 47.1396C33.7125 47.0922 33.3263 46.9684 33.1483 46.8633C32.9698 46.7582 32.6155 46.6483 32.3622 46.6191C32.1082 46.5905 31.7163 46.4718 31.4911 46.3555C31.2659 46.239 30.8674 46.1033 30.6053 46.0537C30.3435 46.0041 30.0169 45.8832 29.8797 45.7852C29.7428 45.6871 29.3929 45.5645 29.1024 45.5127C28.8123 45.4615 28.4734 45.3402 28.3504 45.2432C28.227 45.1467 27.9538 45.0389 27.743 45.0049C27.5328 44.9703 27.1499 44.8242 26.8944 44.6797C26.6386 44.5354 26.3482 44.4181 26.2489 44.418C26.1496 44.4178 25.9297 44.3245 25.7606 44.2109C25.5913 44.0972 25.2686 43.95 25.0438 43.8848C24.819 43.819 24.5537 43.6916 24.454 43.6016C24.3542 43.5121 24.1378 43.4114 23.9745 43.377C23.8106 43.3424 23.5653 43.2219 23.4295 43.1094C23.2933 42.9963 23.0731 42.8772 22.9393 42.8447C22.8062 42.8123 22.5815 42.6892 22.4403 42.5723C22.299 42.4547 22.0669 42.3314 21.9256 42.2969C21.7837 42.2621 21.5014 42.0773 21.2967 41.8867C21.1729 41.7715 21.0485 41.6568 20.9247 41.541C20.9775 41.3729 21.031 41.2038 21.0838 41.0352C21.1717 40.7575 21.3008 40.4806 21.3719 40.4219C21.443 40.3628 21.5507 40.1469 21.6122 39.9414C21.673 39.7356 21.8177 39.4268 21.9325 39.2559C22.0477 39.0851 22.1677 38.843 22.1991 38.7178C22.2303 38.5927 22.3503 38.3519 22.4657 38.1826C22.5805 38.0134 22.7018 37.7862 22.7342 37.6777C22.7672 37.5688 22.8658 37.3994 22.952 37.2998C23.0171 37.2249 23.1129 37.0569 23.1932 36.8828L23.3407 36.5371C23.422 36.3632 23.5198 36.1949 23.5877 36.1201C23.6777 36.0203 23.7824 35.837 23.8202 35.7119C23.8575 35.5873 23.9845 35.3701 24.1024 35.2295C24.2204 35.0882 24.3172 34.9004 24.3172 34.8125C24.3175 34.724 24.4046 34.5742 24.5106 34.4795C24.6168 34.3846 24.782 34.1438 24.8758 33.9443C25.1195 33.4286 25.4221 33.0317 26.0877 32.3574C26.8462 31.5887 27.1957 31.3197 27.6043 31.1865C27.7886 31.1267 28.0373 31.0001 28.1581 30.9053C28.279 30.8109 28.6485 30.6895 28.9793 30.6367C29.3097 30.5839 29.6776 30.5047 29.7958 30.46C29.9137 30.4148 30.0876 30.3846 30.1825 30.3926C30.288 30.4017 30.382 30.3295 30.4247 30.2041C30.4478 30.1362 30.4699 30.0679 30.493 30H32.8543Z" fill="#8CC63F"/>
</g>
<defs>
<clipPath id="clip0_1268_213">
<rect width="180" height="180" fill="white"/>
</clipPath>
</defs>
</svg>
