<svg width="1209" height="221" viewBox="0 0 1209 221" fill="none" xmlns="http://www.w3.org/2000/svg">
<path d="M238.648 108.709C238.825 108.495 239.473 108.376 239.473 108.556C239.473 108.6 239.325 108.921 239.144 109.271C238.963 109.62 238.739 110.389 238.645 110.978C238.551 111.567 238.357 112.228 238.214 112.446C238.071 112.665 237.84 113.334 237.7 113.934C237.561 114.534 237.302 115.274 237.125 115.577C236.947 115.881 236.751 116.432 236.687 116.802C236.624 117.172 236.39 117.791 236.169 118.178C235.948 118.564 235.767 119.026 235.767 119.204C235.767 119.382 235.581 119.876 235.355 120.301C235.128 120.727 234.827 121.463 234.686 121.938C234.544 122.412 234.284 123.041 234.108 123.334C233.931 123.626 233.738 124.139 233.679 124.474C233.619 124.808 233.42 125.217 233.237 125.383C233.053 125.548 232.903 125.777 232.903 125.893C232.903 126.008 232.685 126.516 232.419 127.021C232.153 127.525 231.808 128.323 231.652 128.791C231.496 129.259 231.263 129.73 231.134 129.837C231.005 129.944 230.808 130.309 230.697 130.648C230.586 130.987 230.317 131.529 230.099 131.852C229.881 132.173 229.703 132.565 229.703 132.722C229.703 132.878 229.527 133.22 229.312 133.48C229.098 133.742 228.82 134.222 228.696 134.545C228.571 134.869 228.338 135.285 228.179 135.47C228.019 135.655 227.839 135.971 227.778 136.172C227.717 136.374 227.488 136.801 227.27 137.122C227.051 137.443 226.819 137.884 226.752 138.102C226.686 138.32 226.432 138.763 226.189 139.086C225.737 139.687 225.58 139.944 224.789 141.394C224.541 141.847 224.219 142.317 224.073 142.438C223.927 142.559 223.807 142.794 223.807 142.959C223.807 143.124 223.542 143.576 223.217 143.964C222.893 144.351 222.628 144.784 222.628 144.924C222.628 145.065 222.419 145.425 222.165 145.725C221.91 146.024 221.55 146.52 221.364 146.827C220.724 147.888 220.352 148.464 220.053 148.862C219.44 149.676 218.923 150.449 218.722 150.858C218.607 151.089 218.322 151.52 218.086 151.816C217.851 152.112 217.431 152.666 217.153 153.045C216.875 153.425 216.439 153.988 216.184 154.296C215.93 154.604 215.721 154.934 215.721 155.029C215.72 155.126 215.352 155.644 214.904 156.184C214.455 156.724 213.885 157.487 213.638 157.881C213.392 158.274 213.12 158.595 213.035 158.595C212.95 158.595 212.831 158.75 212.771 158.938C212.711 159.126 212.18 159.865 211.589 160.578C209.824 162.713 209.657 162.925 209.657 163.045C209.656 163.141 206.135 167.353 205.156 168.428C204.991 168.609 204.818 168.848 204.772 168.958C204.725 169.068 204.246 169.639 203.71 170.226C203.172 170.813 202.489 171.567 202.193 171.901C199.412 175.041 198.42 176.13 197.149 177.444C196.34 178.28 195.677 179.024 195.675 179.099C195.675 179.27 183.464 191.495 183.08 191.708C182.919 191.798 182.143 192.476 181.357 193.217C178.933 195.497 176.776 197.479 175.473 198.623C174.788 199.224 173.984 199.943 173.687 200.22C173.39 200.498 172.89 200.937 172.577 201.197C171.591 202.015 170.888 202.624 168.723 204.537C167.565 205.561 166.428 206.521 166.196 206.67C165.965 206.819 164.908 207.661 163.848 208.542C162.79 209.422 161.738 210.294 161.511 210.479C161.284 210.664 160.918 210.983 160.696 211.189C160.474 211.395 160.143 211.645 159.96 211.743C159.776 211.841 159.455 212.075 159.248 212.264C158.864 212.611 158.118 213.192 156.686 214.264C156.252 214.587 155.373 215.269 154.732 215.777C154.09 216.286 153.26 216.929 152.886 217.207C152.512 217.484 151.907 217.938 151.541 218.216C151.175 218.493 150.568 218.947 150.193 219.225C149.818 219.503 149.203 219.976 148.826 220.276C148.597 220.458 148.369 220.641 148.14 220.823L144.913 220.865C138.939 220.942 138.063 220.829 138.647 220.058C138.784 219.876 139.022 219.35 139.176 218.889C139.33 218.426 139.566 217.921 139.702 217.766C139.837 217.61 140.02 217.163 140.108 216.772C140.196 216.383 140.408 215.866 140.579 215.626C140.75 215.385 141.01 214.789 141.155 214.3C141.3 213.811 141.574 213.194 141.763 212.928C141.953 212.663 142.108 212.26 142.108 212.033C142.108 211.806 142.335 211.195 142.613 210.675C142.891 210.155 143.118 209.587 143.118 209.413C143.118 209.24 143.334 208.688 143.598 208.19C143.862 207.692 144.122 207.005 144.176 206.663C144.229 206.321 144.429 205.829 144.621 205.57C144.812 205.31 145.036 204.73 145.12 204.281C145.203 203.832 145.426 203.255 145.615 203C145.804 202.746 146.012 202.243 146.078 201.883C146.144 201.524 146.373 200.889 146.588 200.473C146.802 200.056 147.056 199.362 147.151 198.93C147.247 198.498 147.516 197.787 147.748 197.349C147.98 196.912 148.172 196.358 148.172 196.117C148.173 195.876 148.4 195.225 148.677 194.67C148.954 194.115 149.182 193.502 149.182 193.308C149.182 193.113 149.366 192.608 149.591 192.187C149.816 191.764 150.051 191.053 150.114 190.606C150.176 190.159 150.397 189.528 150.604 189.205C150.812 188.881 151.035 188.279 151.1 187.867C151.165 187.455 151.368 186.877 151.551 186.582C151.711 186.324 151.907 185.768 152.02 185.27L152.106 184.852C152.218 184.354 152.412 183.801 152.568 183.547C152.725 183.292 152.918 182.739 153.031 182.242L153.117 181.824C153.229 181.326 153.424 180.77 153.583 180.513C153.764 180.219 153.995 179.5 154.096 178.916C154.198 178.331 154.45 177.512 154.657 177.095C154.838 176.731 155.033 176.137 155.124 175.687L155.188 175.319C155.267 174.932 155.423 174.439 155.583 174.075L155.741 173.735C155.926 173.31 156.108 172.708 156.167 172.306C156.234 171.846 156.425 171.203 156.591 170.877C156.756 170.551 157.013 169.696 157.161 168.979C157.308 168.263 157.549 167.494 157.694 167.272C157.84 167.05 158.04 166.35 158.138 165.718C158.237 165.084 158.487 164.225 158.696 163.809C158.878 163.444 159.063 162.812 159.14 162.312L159.193 161.901C159.27 161.404 159.451 160.787 159.628 160.441C159.83 160.045 160.063 159.252 160.144 158.678C160.216 158.175 160.395 157.475 160.565 157.013L160.71 156.647C160.88 156.186 161.06 155.493 161.131 154.998C161.213 154.433 161.437 153.609 161.628 153.167C161.82 152.726 162.046 151.817 162.132 151.148C162.208 150.564 162.391 149.796 162.564 149.317L162.711 148.944C162.884 148.465 163.068 147.698 163.143 147.113C163.228 146.444 163.45 145.549 163.636 145.122C163.822 144.695 164.029 143.824 164.096 143.188C164.162 142.55 164.386 141.574 164.593 141.02C164.8 140.464 165.056 139.279 165.162 138.386C165.268 137.492 165.501 136.418 165.68 135.999C165.86 135.581 166.086 134.531 166.183 133.667C166.279 132.802 166.509 131.657 166.693 131.122C166.878 130.587 167.107 129.38 167.204 128.44C167.313 127.383 167.472 126.641 167.623 126.49C167.791 126.322 168.528 126.203 170.021 126.102C171.206 126.022 172.504 125.848 172.904 125.716C173.304 125.584 174.783 125.392 176.189 125.289C177.595 125.185 179.618 124.921 180.683 124.701C181.749 124.482 183.416 124.251 184.389 124.191C185.488 124.122 186.421 123.968 186.852 123.782C187.234 123.618 188.03 123.433 188.621 123.372C190.905 123.135 192.264 122.915 193.317 122.611C193.919 122.437 195.047 122.214 195.823 122.116C196.599 122.018 197.319 121.871 197.423 121.789C197.665 121.599 199.007 121.309 200.308 121.167C200.864 121.107 201.698 120.911 202.161 120.734C202.624 120.556 203.572 120.33 204.266 120.232C204.961 120.135 205.867 119.908 206.279 119.727C206.691 119.546 207.563 119.322 208.216 119.229C208.87 119.137 209.721 118.909 210.108 118.722C210.496 118.535 211.319 118.303 211.937 118.207C212.555 118.111 213.451 117.851 213.928 117.629C214.405 117.407 215.068 117.225 215.401 117.224C215.735 117.224 216.362 117.035 216.794 116.805C217.226 116.576 218.043 116.314 218.609 116.223C219.175 116.132 219.941 115.899 220.312 115.707C220.683 115.514 221.356 115.286 221.809 115.2C222.262 115.114 223.036 114.853 223.53 114.62C224.025 114.387 224.605 114.195 224.819 114.195C225.034 114.195 225.529 114.009 225.919 113.78C226.308 113.552 226.96 113.317 227.365 113.259C227.771 113.201 228.309 113.008 228.563 112.831C228.816 112.653 229.493 112.388 230.067 112.241C230.641 112.094 231.309 111.828 231.55 111.651C231.791 111.473 232.284 111.279 232.647 111.22C232.964 111.169 233.421 110.998 233.733 110.817L233.981 110.663C234.291 110.483 234.738 110.307 235.044 110.251C235.395 110.188 235.948 109.962 236.272 109.749C236.597 109.536 237.221 109.267 237.659 109.151C238.097 109.035 238.542 108.836 238.648 108.709Z" fill="#000000"/>
<path d="M72.6236 120.31C72.7636 120.256 73.2383 120.341 73.6763 120.498C74.7301 120.876 76.3693 121.251 77.0006 121.258C77.2786 121.261 78.0751 121.443 78.7691 121.663C79.4641 121.883 80.6015 122.116 81.2965 122.18C81.9915 122.245 83.166 122.477 83.9068 122.695C84.6478 122.914 86.1384 123.173 87.2174 123.271C88.2969 123.368 89.4713 123.572 89.8277 123.722C90.1847 123.872 91.5377 124.1 92.8345 124.229C94.1313 124.356 95.5344 124.573 95.9517 124.71C96.5777 124.914 99.6449 125.272 102.945 125.526C103.317 125.554 103.775 125.66 103.963 125.76C104.153 125.861 106.313 126.069 108.762 126.222C111.213 126.375 113.559 126.603 113.976 126.729C114.473 126.879 116.505 127.022 119.872 127.141C122.698 127.24 125.54 127.353 126.189 127.391C126.837 127.429 131.992 127.463 137.644 127.467C146.902 127.473 152.109 127.371 159.21 127.045C161.141 126.956 161.608 126.979 161.771 127.174C162.05 127.51 161.619 131.018 161.176 132.022C160.992 132.438 160.791 133.385 160.729 134.125C160.667 134.865 160.461 135.924 160.271 136.479C160.082 137.034 159.827 138.188 159.705 139.044C159.583 139.898 159.361 140.842 159.213 141.141C159.064 141.438 158.83 142.428 158.693 143.34C158.556 144.251 158.326 145.223 158.183 145.5C158.039 145.777 157.811 146.686 157.676 147.521C157.541 148.354 157.314 149.263 157.171 149.538C157.029 149.814 156.807 150.684 156.679 151.472C156.552 152.259 156.328 153.084 156.183 153.307C156.037 153.528 155.837 154.294 155.738 155.009C155.638 155.723 155.404 156.606 155.217 156.972C155.03 157.338 154.808 158.123 154.724 158.718C154.64 159.312 154.382 160.197 154.151 160.685C153.92 161.171 153.728 161.828 153.725 162.143C153.722 162.458 153.565 163.132 153.376 163.641C153.187 164.15 152.896 165.134 152.73 165.827C152.564 166.521 152.31 167.316 152.165 167.593C152.021 167.871 151.815 168.586 151.708 169.182C151.602 169.778 151.365 170.557 151.184 170.913C151.002 171.268 150.773 171.989 150.676 172.514C150.579 173.039 150.361 173.74 150.192 174.071C150.023 174.402 149.834 174.972 149.772 175.337C149.606 176.318 149.337 177.145 149.091 177.432C148.972 177.571 148.823 177.987 148.761 178.356C148.596 179.341 148.328 180.172 148.081 180.459C147.961 180.598 147.813 181.014 147.751 181.384C147.587 182.361 147.318 183.197 147.074 183.486C146.957 183.626 146.809 184.079 146.746 184.495C146.683 184.912 146.454 185.631 146.237 186.093C146.021 186.556 145.757 187.365 145.65 187.891C145.544 188.417 145.32 189.023 145.151 189.236C144.983 189.45 144.792 189.966 144.726 190.382C144.66 190.798 144.452 191.44 144.263 191.811C144.075 192.181 143.817 192.883 143.689 193.371C143.562 193.859 143.349 194.427 143.216 194.633C143.083 194.838 142.849 195.499 142.695 196.1C142.561 196.625 142.371 197.155 142.243 197.372L142.141 197.519C142.013 197.735 141.822 198.262 141.687 198.784C141.532 199.382 141.271 200.063 141.107 200.298C140.943 200.533 140.761 201.035 140.702 201.415C140.643 201.795 140.414 202.438 140.191 202.845C139.969 203.251 139.739 203.86 139.679 204.198C139.62 204.535 139.423 204.999 139.241 205.23C139.06 205.46 138.825 206.053 138.719 206.546C138.613 207.038 138.355 207.709 138.145 208.035C137.935 208.362 137.712 208.932 137.65 209.302C137.587 209.672 137.359 210.239 137.142 210.563C136.926 210.886 136.697 211.403 136.633 211.709C136.569 212.016 136.336 212.583 136.114 212.971C135.892 213.358 135.71 213.835 135.708 214.03C135.706 214.225 135.52 214.658 135.294 214.992C135.067 215.326 134.831 215.868 134.769 216.198C134.707 216.528 134.483 217.052 134.272 217.363C134.061 217.673 133.833 218.182 133.766 218.492C133.591 219.299 132.907 220.594 132.59 220.715C132.418 220.781 132.116 220.613 131.748 220.246C131.433 219.931 131.027 219.627 130.845 219.569C130.664 219.511 130.472 219.352 130.419 219.215C130.366 219.077 130.169 218.908 129.982 218.839C129.469 218.649 123.559 213.239 120.209 209.892C118.587 208.273 116.099 205.661 114.679 204.089C113.259 202.516 111.876 200.999 111.605 200.716C111.335 200.434 111.113 200.144 111.112 200.069C111.112 199.995 110.523 199.241 109.802 198.396C108.376 196.72 106.628 194.561 106.227 193.981C106.088 193.78 105.633 193.181 105.216 192.65C104.277 191.453 104.033 191.115 102.796 189.314C102.252 188.522 101.665 187.746 101.491 187.589C101.316 187.431 101.175 187.216 101.174 187.109C101.174 187.002 100.738 186.335 100.205 185.625C99.6717 184.916 99.047 184.017 98.815 183.629C98.444 183.007 97.6366 181.711 96.9986 180.711C96.8806 180.526 96.6537 180.159 96.4937 179.896C96.3346 179.632 95.9985 179.154 95.7476 178.831C95.4967 178.508 95.2403 178.079 95.1783 177.88C95.1163 177.68 94.9036 177.293 94.7076 177.02C94.5116 176.747 94.2001 176.241 94.0142 175.897C93.0228 174.054 92.7542 173.607 92.5113 173.406C92.3653 173.285 92.2457 173.055 92.2457 172.894C92.2454 172.732 92.0489 172.312 91.8082 171.959C91.5683 171.605 91.3034 171.135 91.2193 170.914C91.1353 170.694 90.8866 170.273 90.6666 169.978C90.475 169.72 90.274 169.334 90.1832 169.06L90.1187 168.841C90.0272 168.571 89.8204 168.204 89.6236 167.97C89.426 167.735 89.2606 167.432 89.2222 167.245L89.2047 167.101C89.1651 166.912 88.9936 166.602 88.7896 166.36C88.5576 166.084 88.2519 165.533 88.1119 165.136C87.9719 164.739 87.7383 164.284 87.5933 164.124C87.4493 163.964 87.2575 163.513 87.1695 163.123C87.0815 162.732 86.8242 162.191 86.5963 161.921C86.3683 161.65 86.1812 161.256 86.1812 161.044C86.1812 160.833 85.9542 160.374 85.6763 160.025C85.3943 159.671 85.1715 159.188 85.1715 158.932C85.1713 158.68 84.9842 158.2 84.7574 157.866C84.5294 157.531 84.2569 156.934 84.1519 156.539C84.0469 156.144 83.8191 155.666 83.6461 155.479C83.4721 155.292 83.2471 154.748 83.1441 154.271C83.0412 153.794 82.8484 153.314 82.7154 153.203C82.5814 153.092 82.3498 152.582 82.1998 152.068C82.0508 151.555 81.7489 150.797 81.5279 150.384C81.308 149.97 81.1276 149.439 81.1275 149.203C81.1275 148.968 80.9386 148.504 80.7086 148.172C80.4786 147.84 80.2146 147.168 80.1217 146.678C80.0286 146.188 79.8036 145.599 79.6217 145.368C79.4407 145.138 79.2422 144.595 79.1822 144.162C79.1212 143.729 78.8876 142.979 78.6636 142.494C78.4397 142.01 78.1862 141.243 78.1002 140.791C78.0142 140.339 77.7901 139.674 77.6021 139.313C77.4132 138.952 77.1862 138.272 77.0963 137.8C77.0073 137.329 76.7841 136.649 76.6021 136.291C76.4201 135.932 76.2179 135.222 76.1519 134.714C76.0869 134.205 75.8647 133.448 75.6588 133.032C75.4518 132.616 75.1983 131.742 75.0933 131.089C74.9893 130.437 74.7852 129.668 74.6412 129.379C74.4972 129.091 74.2731 128.262 74.1441 127.538C74.0151 126.813 73.7607 125.88 73.5797 125.464C73.4205 125.099 73.2494 124.389 73.1675 123.786L73.109 123.284C73.0268 122.682 72.8543 121.978 72.6968 121.621C72.3019 120.729 72.2848 120.439 72.6236 120.31Z" fill="#000000"/>
<path d="M0.298407 90.7617C0.465218 90.4651 0.484789 90.4664 0.833563 90.7842C1.03348 90.9661 1.44273 91.2396 1.7447 91.3916C2.04566 91.5436 2.29151 91.7363 2.29157 91.8193C2.29249 91.9014 2.54848 92.0544 2.86091 92.1572C3.17389 92.2602 3.55937 92.4862 3.71638 92.6592C3.8725 92.8321 4.24197 93.0686 4.53571 93.1846C4.8307 93.3006 5.21138 93.5151 5.38239 93.6611C5.75985 93.9833 7.0474 94.7433 7.85114 95.1182C8.17507 95.2692 8.55396 95.4914 8.69294 95.6113C8.83247 95.7306 9.62801 96.1863 10.4615 96.623C11.2955 97.06 12.13 97.5499 12.315 97.7129C12.5 97.8748 12.9548 98.1047 13.3258 98.2217C13.6957 98.3387 14.2141 98.6131 14.4761 98.8311C14.7378 99.0487 15.0473 99.2262 15.1656 99.2266C15.2836 99.2266 15.7138 99.4526 16.1216 99.7285C16.5296 100.005 16.9853 100.231 17.1343 100.232C17.2846 100.235 17.671 100.416 17.9957 100.636C18.3197 100.856 18.8571 101.125 19.1881 101.235C19.519 101.344 19.9653 101.569 20.1802 101.735C20.3944 101.901 20.8492 102.128 21.19 102.24C21.532 102.351 21.9868 102.575 22.2008 102.737C22.4148 102.899 22.9322 103.129 23.3492 103.248C23.7661 103.367 24.2579 103.595 24.4439 103.755C24.6288 103.915 25.1037 104.146 25.4986 104.271C25.8934 104.394 26.3007 104.597 26.4029 104.72C26.5059 104.844 26.9408 105.05 27.3697 105.179C27.7986 105.308 28.4908 105.61 28.9078 105.85C29.3238 106.09 29.8194 106.288 30.0054 106.289C30.1927 106.29 30.6095 106.466 30.9322 106.679C31.2552 106.893 31.8448 107.162 32.2427 107.277C32.6416 107.393 33.3157 107.671 33.7418 107.897C34.1675 108.123 34.6763 108.308 34.8736 108.309C35.0696 108.309 35.495 108.482 35.817 108.693C36.14 108.905 36.7818 109.174 37.2437 109.292C37.7057 109.41 38.2013 109.612 38.3443 109.741C38.4868 109.87 39.0432 110.09 39.5797 110.229C40.1166 110.368 40.7974 110.628 41.0914 110.805C41.3854 110.982 41.9295 111.181 42.2994 111.246C42.6704 111.311 43.2012 111.502 43.4791 111.67C43.7571 111.838 44.4578 112.095 45.0377 112.241C45.6166 112.388 46.266 112.621 46.4791 112.761C46.693 112.9 47.2618 113.089 47.7437 113.181C48.2257 113.272 49.0251 113.538 49.5191 113.771C50.0128 114.003 50.6052 114.195 50.8355 114.195C51.0655 114.195 51.6276 114.385 52.0826 114.617C52.5386 114.849 53.3398 115.108 53.8638 115.193C54.3868 115.279 55.134 115.511 55.523 115.709C55.912 115.907 56.6972 116.143 57.2672 116.234C57.836 116.324 58.5909 116.546 58.9429 116.728C59.2949 116.91 60.0583 117.126 60.6383 117.208C61.2182 117.29 61.9854 117.513 62.3424 117.704C62.6994 117.895 63.3394 118.097 63.7633 118.152C65.4619 118.374 66.1628 118.627 66.5758 119.167C66.7967 119.457 66.9781 119.845 66.9781 120.029C66.9783 120.215 67.1178 120.775 67.2896 121.274C67.4606 121.774 67.6552 122.667 67.7222 123.258C67.7882 123.849 67.9914 124.73 68.1734 125.216C68.3554 125.701 68.6108 126.757 68.7408 127.561C68.8708 128.364 69.1034 129.213 69.2564 129.446C69.4104 129.681 69.606 130.375 69.6929 130.989C69.77 131.527 69.946 132.211 70.108 132.621L70.2447 132.938C70.4089 133.352 70.5946 134.051 70.6822 134.606C70.7832 135.241 71.0519 136.112 71.2799 136.54C71.4793 136.915 71.6464 137.438 71.6851 137.787L71.7027 138.062C71.7412 138.411 71.9073 138.932 72.105 139.303C72.331 139.727 72.595 140.503 72.692 141.028C72.79 141.553 73.015 142.22 73.1939 142.511C73.3719 142.801 73.5997 143.487 73.7008 144.035C73.8008 144.582 73.9983 145.205 74.1383 145.418C74.2772 145.631 74.4975 146.214 74.6285 146.714C74.7585 147.214 75.0623 148.037 75.3023 148.543C75.5413 149.048 75.7369 149.648 75.7369 149.876C75.7369 150.103 75.9173 150.533 76.1373 150.831C76.3572 151.128 76.625 151.817 76.732 152.361C76.839 152.905 77.0384 153.441 77.1744 153.554C77.3104 153.666 77.5259 154.111 77.6539 154.542C77.7819 154.973 78.0468 155.589 78.2427 155.91C78.4387 156.231 78.6001 156.613 78.6002 156.759C78.6012 156.905 78.7949 157.397 79.0328 157.852C79.2697 158.306 79.5774 159.04 79.7144 159.481C79.8524 159.923 80.1496 160.558 80.3765 160.893C80.6044 161.227 80.7904 161.638 80.7906 161.807C80.7906 161.975 80.9748 162.383 81.1998 162.714C81.4247 163.045 81.662 163.558 81.7271 163.856C81.7921 164.153 82.0191 164.603 82.23 164.855C82.4156 165.076 82.6125 165.452 82.7037 165.745L82.7681 165.985C82.8465 166.237 83.005 166.551 83.1675 166.777L83.3297 166.988C83.5183 167.254 83.6969 167.647 83.7486 167.923C83.8076 168.238 84.0013 168.627 84.1773 168.786C84.3543 168.946 84.5812 169.384 84.6832 169.76C84.7842 170.136 85.0434 170.652 85.2574 170.906C85.4723 171.161 85.6965 171.59 85.7554 171.86C85.8156 172.13 86.0083 172.482 86.1851 172.641C86.3611 172.801 86.5937 173.206 86.7017 173.542C86.8087 173.878 86.9929 174.266 87.1099 174.405C87.2271 174.544 87.5394 175.065 87.8052 175.562C88.7842 177.402 88.9694 177.723 89.3404 178.229C89.5484 178.512 89.7193 178.857 89.7193 178.993C89.7195 179.129 89.838 179.34 89.9849 179.461C90.0945 179.552 90.2893 179.827 90.4713 180.14L90.8189 180.778C91.0011 181.091 91.1967 181.366 91.3062 181.457C91.452 181.578 91.5716 181.776 91.5718 181.896C91.5718 182.017 91.7617 182.341 91.9937 182.616C92.2266 182.892 92.5105 183.334 92.6256 183.599C92.7406 183.864 92.9713 184.269 93.1363 184.498C93.988 185.679 94.2912 186.145 94.5611 186.688C94.8451 187.261 95.0589 187.562 96.2359 189.041C96.5318 189.413 96.8203 189.866 96.8785 190.049C96.9365 190.232 97.059 190.382 97.15 190.382C97.2409 190.382 97.4061 190.594 97.5181 190.854C97.7281 191.343 98.1731 191.961 99.1099 193.06C99.4108 193.412 99.6576 193.783 99.6578 193.882C99.6578 193.98 99.8847 194.31 100.163 194.613C100.441 194.917 100.667 195.223 100.668 195.292C100.668 195.362 101.124 195.946 101.679 196.591C102.235 197.236 102.69 197.814 102.69 197.876C102.69 197.937 102.883 198.225 103.119 198.516C104.454 200.155 106.873 203.044 107.628 203.901C108.108 204.445 108.581 205.033 108.678 205.209C108.847 205.511 113.391 210.346 116.084 213.086C117.975 215.012 121.401 218.244 122.057 218.722C123.322 219.643 122.994 220.011 121.094 219.801C120.423 219.727 119.811 219.627 119.732 219.579C119.371 219.357 116.328 218.805 115.461 218.805C114.873 218.805 113.997 218.64 113.248 218.389C112.566 218.16 111.356 217.899 110.559 217.809C109.762 217.719 108.766 217.488 108.343 217.295C107.921 217.103 107.002 216.874 106.301 216.785C105.6 216.696 104.785 216.516 104.49 216.385C103.594 215.987 102.835 215.777 102.286 215.776C101.998 215.775 101.366 215.59 100.882 215.364C100.397 215.139 99.6009 214.88 99.1129 214.79C98.625 214.699 97.8094 214.431 97.2994 214.194C96.854 213.987 96.3331 213.811 96.0552 213.769L95.8482 213.749C95.5698 213.707 95.0502 213.532 94.6041 213.324C94.0942 213.087 93.2644 212.816 92.7593 212.722C92.2536 212.629 91.6583 212.409 91.4361 212.235C91.2141 212.061 90.7555 211.87 90.4175 211.811C90.0796 211.751 89.4841 211.53 89.0953 211.318C88.7054 211.106 88.0873 210.882 87.7213 210.82C87.3563 210.758 86.8122 210.528 86.5142 210.308C86.2162 210.088 85.7339 209.857 85.4449 209.795C85.1548 209.732 84.4836 209.463 83.9537 209.197C83.4243 208.932 82.8862 208.714 82.7564 208.714C82.6264 208.714 82.3236 208.559 82.0826 208.37C81.9025 208.228 81.5376 208.044 81.1754 207.904L80.4664 207.66C80.105 207.521 79.743 207.34 79.566 207.2C79.3301 207.015 79.0281 206.864 78.8951 206.864C78.7611 206.864 78.3177 206.638 77.9097 206.362C77.5536 206.121 77.1611 205.916 76.9693 205.868L76.8306 205.847C76.6384 205.798 76.2463 205.594 75.8892 205.353C75.4812 205.077 75.0208 204.85 74.8658 204.848C74.7107 204.846 74.3556 204.654 74.0777 204.421C73.7997 204.187 73.3212 203.912 73.0133 203.809C72.7043 203.706 72.2201 203.45 71.9361 203.24C71.6522 203.03 71.1604 202.736 70.8414 202.587C70.5234 202.438 69.8455 202.054 69.3355 201.734C68.8265 201.414 68.1439 201.03 67.8199 200.881C67.4959 200.732 67.0411 200.436 66.8092 200.224C66.5783 200.011 66.1994 199.781 65.9674 199.712C65.7354 199.643 65.311 199.387 65.023 199.146C64.5441 198.743 64.1317 198.474 62.9371 197.782C62.6971 197.643 62.0591 197.198 61.5181 196.794C60.9771 196.389 60.3695 195.973 60.1685 195.869C59.9685 195.765 59.5801 195.506 59.3062 195.295C59.0323 195.083 58.3163 194.553 57.7154 194.117C57.1145 193.682 56.4889 193.193 56.3248 193.031C56.1618 192.869 55.9501 192.736 55.8541 192.736C55.757 192.736 55.1048 192.263 54.4049 191.685C53.2779 190.756 51.5472 189.36 50.3013 188.376C47.5623 186.214 38.9202 177.847 35.7642 174.303C34.9492 173.388 33.8546 172.169 33.3316 171.595C32.8099 171.021 32.3115 170.416 32.2232 170.25C32.1362 170.084 31.9216 169.796 31.7486 169.611C31.4466 169.289 30.9937 168.724 29.6187 166.953C29.2737 166.508 28.8209 165.983 28.6129 165.787C28.4039 165.591 28.234 165.338 28.234 165.224C28.2335 165.11 27.9868 164.71 27.6861 164.333C27.3852 163.957 26.9114 163.34 26.6334 162.963C26.3554 162.586 25.9196 162.026 25.6646 161.718C25.4101 161.41 25.2024 161.082 25.2017 160.986C25.2017 160.891 24.9548 160.507 24.6539 160.132C23.6459 158.877 23.1802 158.206 23.1802 158.009C23.1801 157.901 22.9969 157.641 22.772 157.431C22.5481 157.221 22.2689 156.81 22.1519 156.519C22.0349 156.227 21.7643 155.775 21.5494 155.513C21.3344 155.252 21.1559 154.949 21.1519 154.84C21.1478 154.732 20.921 154.38 20.6461 154.061C20.3724 153.741 20.1484 153.391 20.148 153.285C20.148 153.178 19.9789 152.876 19.772 152.614C19.5661 152.352 19.2214 151.793 19.0054 151.372C18.4484 150.283 18.0941 149.672 17.6851 149.093C17.4891 148.816 17.2717 148.399 17.2027 148.168C17.1337 147.937 16.9438 147.596 16.7808 147.411C16.3698 146.945 16.105 146.4 16.105 146.019C16.1048 145.842 15.953 145.559 15.7672 145.392C15.5812 145.224 15.339 144.776 15.23 144.398C15.12 144.02 14.8618 143.505 14.6558 143.253C14.4748 143.032 14.2822 142.658 14.192 142.364L14.1275 142.124C14.0499 141.873 13.8945 141.562 13.7349 141.339L13.5748 141.132C13.3885 140.872 13.2076 140.491 13.149 140.226C13.0829 139.923 12.8883 139.494 12.7154 139.274C12.5424 139.053 12.3164 138.563 12.2144 138.183C12.1114 137.803 11.8797 137.285 11.6998 137.033C11.5198 136.78 11.2606 136.147 11.1246 135.625C10.9886 135.102 10.7294 134.487 10.5484 134.257C10.3665 134.027 10.1681 133.569 10.106 133.239C10.044 132.91 9.81425 132.377 9.59626 132.056C9.37727 131.734 9.1988 131.268 9.1988 131.019C9.19861 130.769 9.00873 130.194 8.7779 129.739C8.54596 129.284 8.24028 128.458 8.09723 127.905C7.9543 127.352 7.73121 126.735 7.59919 126.535C7.46818 126.335 7.2413 125.653 7.09431 125.021C6.9473 124.388 6.71087 123.693 6.56989 123.479C6.42791 123.262 6.23802 122.62 6.14606 122.051C6.06557 121.552 5.88065 120.944 5.71052 120.598L5.56794 120.334C5.3992 119.985 5.22054 119.361 5.14704 118.846C5.06402 118.256 4.83803 117.408 4.64606 116.96C4.4781 116.569 4.28285 115.813 4.17829 115.173L4.10016 114.642C3.9959 114.004 3.79928 113.259 3.63044 112.88C3.43746 112.447 3.21338 111.488 3.13337 110.748C3.05336 110.008 2.82839 108.91 2.63239 108.309C2.43641 107.708 2.1981 106.387 2.10309 105.373C2.00718 104.36 1.85809 103.399 1.77106 103.234C1.50508 102.738 1.15259 100.264 1.04157 98.1104C0.98357 96.9874 0.832656 95.7 0.704657 95.251C0.501673 94.536 0.422305 93.9749 0.176336 91.5752C0.147344 91.2972 0.20241 90.9317 0.298407 90.7617Z" fill="#000000"/>
<path d="M281.923 82.0732C281.305 82.1972 281.263 82.3923 281.193 84.0303C281.15 85.0354 281.036 87.219 280.939 88.8838C280.843 90.5486 280.722 92.8566 280.672 94.0137C280.622 95.1696 280.511 96.494 280.427 96.957C279.874 99.985 279.751 100.827 279.655 102.242C279.603 103.012 279.441 103.997 279.273 104.61L279.128 105.087C278.958 105.701 278.784 106.699 278.719 107.468C278.635 108.469 278.456 109.354 278.238 109.835C278.047 110.258 277.818 111.245 277.729 112.028C277.639 112.811 277.411 113.844 277.222 114.325C277.032 114.805 276.795 115.709 276.695 116.334C276.595 116.958 276.369 117.796 276.192 118.195C276.015 118.594 275.787 119.39 275.686 119.964C275.584 120.537 275.355 121.311 275.177 121.685C274.999 122.059 274.778 122.758 274.687 123.24C274.595 123.722 274.408 124.288 274.27 124.498C274.132 124.707 273.899 125.397 273.752 126.03C273.605 126.663 273.378 127.344 273.247 127.544C273.116 127.744 272.882 128.397 272.729 128.997C272.575 129.597 272.313 130.259 272.146 130.471C271.98 130.682 271.793 131.175 271.73 131.565C271.668 131.955 271.442 132.54 271.229 132.864C271.016 133.187 270.751 133.846 270.64 134.327C270.529 134.808 270.332 135.289 270.201 135.397C270.071 135.505 269.853 135.967 269.718 136.422C269.583 136.877 269.319 137.442 269.132 137.68C268.945 137.917 268.741 138.387 268.678 138.725C268.615 139.062 268.39 139.604 268.178 139.927C267.967 140.251 267.741 140.742 267.677 141.02C267.613 141.298 267.393 141.752 267.188 142.03C266.983 142.307 266.762 142.753 266.696 143.02C266.63 143.287 266.399 143.741 266.182 144.029C265.966 144.317 265.737 144.793 265.675 145.087C265.612 145.382 265.445 145.718 265.304 145.836C265.162 145.953 264.871 146.394 264.657 146.813C264.443 147.234 264 148.071 263.673 148.673C263.345 149.274 262.916 150.08 262.719 150.465C262.547 150.801 262.29 151.185 262.108 151.385L261.969 151.523C261.821 151.685 261.709 151.906 261.709 152.049C261.709 152.213 261.528 152.562 261.307 152.824C261.086 153.086 260.782 153.565 260.632 153.888C260.481 154.211 260.188 154.713 259.981 155.003C259.773 155.294 259.451 155.783 259.266 156.092C259.081 156.4 258.778 156.887 258.592 157.175C258.407 157.462 258.104 157.948 257.919 158.255C257.732 158.562 257.373 159.058 257.118 159.357C256.864 159.657 256.655 159.978 256.655 160.072C256.654 160.167 256.47 160.459 256.245 160.722C255.534 161.556 254.634 162.797 254.634 162.945C254.634 163.024 254.447 163.307 254.219 163.574C253.991 163.842 253.593 164.337 253.334 164.674C253.076 165.012 252.577 165.655 252.226 166.104C251.874 166.552 251.365 167.223 251.093 167.593C250.24 168.756 247.785 171.666 246.18 173.416C245.873 173.75 245.411 174.28 245.154 174.593C243.319 176.826 236.631 183.478 234.426 185.265C234.013 185.6 233.596 185.976 233.5 186.103C233.403 186.229 233.082 186.505 232.785 186.717C232.362 187.018 229.603 189.308 227.511 191.094C227.37 191.213 226.991 191.495 226.668 191.719C226.344 191.943 225.664 192.48 225.155 192.913C224.645 193.346 224.058 193.753 223.849 193.818C223.64 193.883 223.47 193.996 223.47 194.068C223.469 194.142 223.109 194.436 222.669 194.726C222.229 195.015 221.529 195.517 221.112 195.84C220.695 196.164 220.126 196.544 219.848 196.687C219.57 196.829 218.888 197.282 218.332 197.695C217.776 198.107 217.094 198.552 216.816 198.684C216.538 198.816 216.05 199.121 215.731 199.362C215.412 199.603 215.061 199.8 214.951 199.8C214.841 199.8 214.652 199.92 214.531 200.065C214.329 200.308 214.015 200.497 211.996 201.595C211.626 201.796 211.206 202.061 211.061 202.183C210.804 202.402 209.818 202.94 208.309 203.683C207.892 203.889 207.475 204.157 207.383 204.279C207.29 204.4 206.877 204.618 206.465 204.761C206.104 204.887 205.708 205.076 205.515 205.211L205.377 205.32C205.184 205.455 204.792 205.644 204.435 205.77C204.078 205.895 203.686 206.085 203.494 206.221L203.355 206.33C203.163 206.465 202.77 206.654 202.413 206.78C202.057 206.905 201.664 207.094 201.472 207.229L201.334 207.339C201.142 207.474 200.749 207.663 200.392 207.789C199.984 207.932 199.533 208.154 199.39 208.282C199.246 208.41 198.788 208.605 198.372 208.715C197.956 208.826 197.421 209.055 197.183 209.224C196.945 209.394 196.527 209.586 196.255 209.652C195.982 209.717 195.338 209.981 194.823 210.238C194.307 210.495 193.606 210.757 193.263 210.821C192.921 210.885 192.457 211.082 192.234 211.257C192.01 211.433 191.423 211.652 190.93 211.745C190.436 211.837 189.829 212.062 189.58 212.244C189.331 212.426 188.776 212.654 188.346 212.75C187.916 212.847 187.21 213.102 186.777 213.318C186.344 213.534 185.616 213.76 185.16 213.82C184.703 213.88 184.076 214.079 183.765 214.262C183.455 214.445 182.755 214.666 182.211 214.753C181.668 214.841 180.92 215.066 180.551 215.254C180.228 215.419 179.565 215.62 178.987 215.734L178.504 215.82C177.928 215.934 177.271 216.132 176.955 216.293C176.592 216.478 175.673 216.707 174.911 216.802C174.244 216.885 173.422 217.071 172.948 217.24L172.586 217.383C172.113 217.55 171.3 217.729 170.643 217.805C169.893 217.891 168.794 218.117 168.201 218.307C167.608 218.497 166.298 218.729 165.293 218.824C164.286 218.918 163.265 219.071 163.024 219.162C162.279 219.445 160.094 219.813 159.163 219.813C158.011 219.813 158.011 219.538 159.163 218.797C159.65 218.484 160.792 217.619 161.702 216.876C163.342 215.537 163.854 215.15 165.042 214.355C165.38 214.128 165.684 213.884 165.716 213.81C165.794 213.643 170.101 210.026 170.967 209.388L171.186 209.237C171.476 209.021 172.247 208.362 173.044 207.646C173.956 206.828 174.993 205.921 175.348 205.629C177.322 204.003 181.346 200.407 184.951 197.045C187.03 195.107 198.926 183.278 199.518 182.561C199.733 182.301 200.593 181.362 201.429 180.475C202.265 179.588 203.141 178.648 203.377 178.388C205.962 175.519 207.284 174.026 207.636 173.573C207.867 173.275 208.474 172.555 208.983 171.974C209.768 171.079 210.605 170.075 212.773 167.43C212.959 167.204 213.338 166.709 213.616 166.33C213.894 165.951 214.576 165.087 215.132 164.411C216.185 163.129 216.462 162.771 217.158 161.791C217.388 161.467 217.84 160.862 218.164 160.445C218.965 159.413 219.608 158.506 220.05 157.781C220.254 157.447 220.526 157.096 220.654 157.002C220.783 156.907 221.109 156.496 221.378 156.088C221.648 155.68 221.982 155.184 222.122 154.983C223.337 153.237 223.769 152.6 224.06 152.129C224.245 151.828 224.7 151.143 225.07 150.607C225.709 149.684 226.158 148.976 226.923 147.684C227.109 147.372 227.42 146.918 227.616 146.675C227.812 146.433 228.022 146.07 228.086 145.87C228.149 145.671 228.425 145.225 228.699 144.88C228.973 144.536 229.197 144.156 229.197 144.037C229.197 143.919 229.376 143.607 229.595 143.346C229.814 143.084 230.047 142.7 230.112 142.491C230.178 142.283 230.405 141.904 230.616 141.65C230.828 141.396 231.091 140.914 231.201 140.578C231.31 140.243 231.542 139.84 231.715 139.683C231.889 139.526 232.081 139.195 232.143 138.948C232.205 138.7 232.428 138.271 232.64 137.993C232.851 137.716 233.083 137.299 233.155 137.068C233.227 136.837 233.463 136.436 233.68 136.178C233.896 135.919 234.152 135.416 234.248 135.062C234.343 134.707 234.531 134.326 234.665 134.215C234.798 134.104 234.998 133.735 235.108 133.396C235.218 133.057 235.452 132.575 235.628 132.324C235.803 132.074 236.033 131.62 236.136 131.315C236.239 131.011 236.456 130.571 236.618 130.339C236.779 130.107 237.002 129.583 237.112 129.174C237.222 128.765 237.485 128.198 237.696 127.914C237.907 127.63 238.128 127.145 238.186 126.837C238.244 126.529 238.435 126.074 238.612 125.826C238.788 125.579 239.017 125.065 239.119 124.685C239.222 124.305 239.447 123.814 239.62 123.594C239.793 123.373 240.021 122.787 240.127 122.291C240.233 121.794 240.461 121.189 240.634 120.945C240.806 120.702 241.003 120.237 241.071 119.914C241.14 119.59 241.373 118.947 241.589 118.484C241.805 118.022 242.066 117.267 242.168 116.808C242.271 116.348 242.498 115.741 242.673 115.458C242.848 115.175 243.064 114.489 243.154 113.932C243.244 113.375 243.469 112.658 243.653 112.338C243.838 112.019 244.042 111.341 244.106 110.832C244.171 110.323 244.415 109.423 244.649 108.832C244.883 108.24 245.128 107.298 245.195 106.738C245.277 106.04 245.408 105.664 245.61 105.543C245.772 105.445 246.293 105.12 246.768 104.819C247.243 104.519 247.748 104.271 247.89 104.27C248.032 104.267 248.482 104.04 248.89 103.765C249.297 103.489 249.757 103.264 249.912 103.264C250.067 103.264 250.492 103.039 250.856 102.764C251.22 102.489 251.639 102.262 251.789 102.259C251.939 102.257 252.269 102.091 252.524 101.892C252.988 101.527 253.723 101.101 255.147 100.37C255.569 100.154 256.129 99.8086 256.391 99.6016C256.654 99.3957 256.954 99.2247 257.057 99.2227C257.161 99.2193 257.543 98.9925 257.906 98.7178C258.27 98.4428 258.658 98.2178 258.768 98.2178C258.877 98.2175 259.236 98.0097 259.564 97.7559C259.892 97.501 260.408 97.1421 260.711 96.957C261.695 96.3541 262.303 95.9592 263.294 95.2754C263.83 94.9054 264.513 94.4506 264.81 94.2656C265.398 93.9005 266.998 92.812 267.838 92.2051C268.126 91.9961 268.666 91.6248 269.036 91.3789C269.407 91.1329 270.179 90.5471 270.751 90.0762C271.322 89.6062 272.139 88.9654 272.563 88.6533C272.988 88.3413 273.543 87.9055 273.797 87.6855C274.052 87.4661 274.828 86.813 275.522 86.2324C276.929 85.0565 277.204 84.811 279.169 82.9854C280.33 81.9064 280.651 81.6977 281.234 81.6377C281.463 81.6147 281.693 81.5924 281.923 81.5684V82.0732Z" fill="#000000"/>
<path d="M69.4849 44.5068C69.916 43.9889 74.4539 44.2584 76.1519 44.9023C76.4221 45.0053 77.7854 45.1316 79.1802 45.1836C80.5762 45.2366 82.4 45.3904 83.233 45.5254C85.9669 45.9654 87.0652 46.0768 90.4771 46.2578C95.2269 46.5108 96.8428 46.6483 97.1109 46.8203C97.2391 46.9033 97.8363 46.9564 98.4371 46.9395C99.038 46.9235 100.131 46.9975 100.866 47.1045C101.311 47.1695 101.756 47.2348 102.201 47.2998C103.448 48.5558 104.694 49.8124 105.941 51.0684C107.997 53.1398 109.869 55.0669 110.102 55.3525C110.333 55.6365 111.409 56.7891 112.492 57.9131C114.65 60.152 117.597 63.2828 119.956 65.8447C120.79 66.7497 121.937 67.9621 122.505 68.5381C123.073 69.1135 123.605 69.7068 123.69 69.8574C123.872 70.1814 125.15 71.6339 128.777 75.6357C129.299 76.2117 129.93 76.9314 130.179 77.2344C131.297 78.5931 131.774 79.1588 132.131 79.5508C132.342 79.7819 132.935 80.4617 133.448 81.0635C134.772 82.6124 135.734 83.7115 136.142 84.1416C136.335 84.3446 136.562 84.637 136.647 84.791C136.732 84.9451 137.161 85.4749 137.601 85.9678C138.041 86.4618 139.164 87.7738 140.098 88.8838C142.445 91.6757 142.509 91.7539 143.649 93.1729C144.759 94.5547 145.482 95.4236 146.192 96.2285C146.415 96.4815 146.603 96.736 146.646 96.8389L146.666 96.9072C146.709 97.008 146.896 97.251 147.119 97.4922C147.374 97.7682 147.706 98.2239 147.857 98.5059C148.048 98.8598 148.359 99.0927 148.866 99.2617C149.567 99.4957 149.598 99.5329 149.548 100.106C149.506 100.593 149.601 100.818 150.055 101.298C150.363 101.623 150.842 102.202 151.12 102.583C151.671 103.34 152.664 104.602 153.265 105.311C153.475 105.558 153.836 106.032 154.068 106.366C154.786 107.399 155.908 108.876 156.345 109.363C156.575 109.619 156.763 109.911 156.763 110.014C156.763 110.115 156.971 110.451 157.226 110.759C157.481 111.067 157.917 111.628 158.195 112.006C158.473 112.384 158.884 112.926 159.109 113.21C159.334 113.494 159.638 113.933 159.783 114.187C160.417 115.289 160.75 115.793 161.185 116.303C161.44 116.602 161.648 116.92 161.648 117.012C161.648 117.102 161.882 117.471 162.169 117.83C162.455 118.19 162.792 118.73 162.918 119.031C163.431 120.256 164.175 119.222 164.175 117.284C164.175 116.215 164.309 115.11 164.692 113.018C164.785 112.508 164.974 110.692 165.112 108.981C165.25 107.271 165.434 105.342 165.522 104.693C165.932 101.674 165.933 100.984 165.529 100.331C164.811 99.1711 163.565 98.848 161.684 99.3359C161.379 99.4149 158.595 99.4586 155.497 99.4326C153.619 99.4176 151.741 99.4017 149.864 99.3867C149.895 99.1218 149.926 98.8567 149.957 98.5918C150.009 98.1548 150.272 97.3516 150.543 96.8066C151.201 95.4818 151.217 94.308 150.588 93.2031C150.342 92.7701 148.542 90.7887 146.587 88.7998C144.633 86.8108 141.651 83.7757 139.96 82.0557C138.269 80.3348 136.886 78.8556 136.886 78.7676C136.887 78.4837 137.28 78.2051 137.68 78.2051C137.895 78.2049 138.497 77.9771 139.018 77.7002C139.539 77.4222 140.063 77.1953 140.182 77.1953C140.301 77.1951 140.564 76.9863 140.766 76.7324C141.088 76.3287 141.122 76.1287 141.043 75.1582C140.993 74.5462 140.799 73.5237 140.613 72.8867C140.427 72.2506 140.194 70.76 140.096 69.5762C139.997 68.3912 139.811 67.2178 139.682 66.9688C139.444 66.5098 139.358 66.0838 139.393 65.5488C139.421 65.116 140.347 65.1684 141.267 65.6543C141.683 65.8742 142.439 66.142 142.948 66.25C143.456 66.357 144.041 66.5574 144.25 66.6924C144.457 66.8284 145.128 67.0553 145.739 67.1973C146.349 67.3382 146.988 67.5404 147.159 67.6465C147.921 68.1215 149.898 66.9277 150.072 65.8867C150.223 64.985 150.951 63.5742 151.33 63.4473C151.438 63.4113 151.644 63.6317 151.788 63.9395C152.033 64.4624 152.477 65.1452 153.177 66.0742C153.648 66.6989 153.956 67.1539 154.32 67.7656C154.506 68.0766 154.854 68.5655 155.096 68.8525C155.337 69.1395 155.633 69.5639 155.753 69.7949C156.341 70.9228 158.055 72.8229 158.487 72.8232C159.015 72.8232 159.764 72.2946 159.982 71.7686C160.218 71.199 160.067 66.1107 159.782 65.002C159.516 63.9659 159.275 61.2704 159.15 57.9385C159.088 56.2752 158.974 54.8157 158.896 54.6943C158.814 54.5663 158.841 54.3725 158.962 54.2275C159.223 53.9152 159.705 54.0541 160.402 54.6396C160.689 54.8816 161.144 55.2091 161.413 55.3682C161.681 55.5261 162.091 55.811 162.324 56.002C162.569 56.201 163.12 56.3911 163.63 56.4521C164.486 56.5531 164.53 56.5367 165.109 55.9238C165.818 55.1728 166.967 53.4878 167.977 51.7158C168.135 51.4379 168.481 50.9631 168.746 50.6592C169.012 50.3552 169.228 50.0049 169.228 49.8809C169.228 49.7559 169.348 49.5555 169.493 49.4346C169.639 49.3136 169.913 48.9081 170.102 48.5322C170.291 48.1553 170.581 47.6958 170.747 47.5107C170.912 47.3257 171.074 47.0314 171.107 46.8564C171.139 46.6815 171.303 46.4545 171.471 46.3516C171.896 46.0922 172.525 46.8382 172.687 47.7949C172.754 48.1927 172.989 48.7814 173.209 49.1045C173.428 49.4274 173.608 49.8518 173.608 50.0479C173.608 50.2438 173.797 50.7603 174.029 51.1953C174.26 51.6293 174.535 52.3405 174.639 52.7754C174.744 53.2104 175 53.8694 175.209 54.2393C175.418 54.6092 175.645 55.1732 175.715 55.4932C175.902 56.361 176.578 57.0902 177.683 57.6182C178.012 57.7751 178.342 57.9319 178.67 58.0889C178.979 57.9369 179.287 57.7857 179.596 57.6348C180.105 57.3858 180.666 57.1816 180.842 57.1816C181.019 57.1814 181.388 56.9925 181.663 56.7607C182.221 56.2918 183 56.206 183.15 56.5947C183.204 56.7347 183.16 56.955 183.054 57.083C182.947 57.211 182.782 57.7949 182.688 58.3799C182.594 58.9649 182.373 59.675 182.199 59.958C182.024 60.2401 181.797 60.9988 181.695 61.6436C181.593 62.2875 181.361 63.104 181.179 63.4561C180.997 63.8071 180.778 64.5894 180.692 65.1924C180.606 65.7962 180.413 66.4779 180.261 66.709C180.11 66.939 179.87 67.7469 179.727 68.5029C179.584 69.2599 179.323 70.1608 179.148 70.5059C178.972 70.8498 178.749 71.6958 178.653 72.3857C178.51 73.4117 178.524 73.7492 178.731 74.2432C179.007 74.901 179.525 75.1874 180.143 75.0225C180.538 74.9157 182.816 72.8078 186.5 69.1445C187.683 67.9657 188.512 67.2675 188.657 67.3232C188.791 67.3742 188.934 67.7607 188.991 68.2256C189.19 69.8623 189.578 70.8574 190.244 71.4395C190.59 71.7432 191.025 72.0526 191.211 72.1279C191.618 72.2919 194.882 72.0478 195.591 71.8008C195.87 71.7038 196.804 71.5167 197.669 71.3848C199.971 71.0338 200.295 71.3119 199.454 72.9199C199.216 73.3759 198.874 74.2636 198.692 74.8945C198.511 75.5255 198.255 76.2072 198.123 76.4082C197.992 76.6105 197.801 77.146 197.7 77.5986C197.599 78.0516 197.372 78.6241 197.196 78.8701C197.021 79.117 196.83 79.5406 196.772 79.8125C196.714 80.0835 196.588 80.6218 196.49 81.0068C196.209 82.1227 196.526 82.8268 197.543 83.3408C197.997 83.5718 198.371 83.8291 198.371 83.9121C198.371 83.9961 198.636 84.1519 198.96 84.2588C199.751 84.5188 199.785 85.1543 199.031 85.5703C198.746 85.7285 198.003 86.2431 197.38 86.7139C196.759 87.1858 196.052 87.6775 195.813 87.8076C195.574 87.9366 194.971 88.3525 194.474 88.7314C193.977 89.1104 193.319 89.5499 193.013 89.708C192.707 89.8659 192.329 90.11 192.171 90.25C191.785 90.594 190.523 91.4981 189.853 91.9111C189.553 92.0961 188.871 92.55 188.337 92.9199C187.803 93.2898 187.223 93.6781 187.047 93.7812C186.873 93.8852 186.579 94.1311 186.395 94.3281C186.211 94.5251 185.957 94.6855 185.83 94.6855C185.703 94.686 185.27 94.9564 184.868 95.2861C183.842 96.1259 183.765 96.2021 183.185 96.957C183.013 97.181 182.841 97.4049 182.669 97.6299C182.692 98.2457 182.715 98.8626 182.739 99.4795C182.792 100.895 182.88 101.438 183.113 101.793C183.371 102.185 183.383 102.298 183.193 102.528C182.902 102.876 181.432 102.747 180.216 102.27C179.755 102.088 178.894 101.887 178.304 101.824C177.713 101.76 176.699 101.533 176.051 101.319C175.402 101.105 174.247 100.852 173.483 100.756C172.719 100.661 171.885 100.474 171.628 100.342C170.938 99.9849 169.16 99.6761 168.505 99.7979C168.122 99.8698 167.764 100.115 167.422 100.54C166.919 101.165 166.909 101.218 166.72 104.111C166.615 105.726 166.46 107.69 166.376 108.477C166.292 109.264 166.139 110.701 166.036 111.673C165.877 113.175 165.575 117.524 165.469 119.83C165.459 120.054 165.448 120.278 165.438 120.502C165.176 120.484 164.913 120.466 164.651 120.448C163.955 120.399 163.811 120.451 163.416 120.894C163.084 121.266 162.765 121.422 162.182 121.498C161.47 121.59 157.261 121.784 150.714 122.027C149.379 122.076 148.153 122.188 147.988 122.276C147.553 122.504 129.129 122.489 128.527 122.26C128.272 122.164 126.883 122.052 125.441 122.013C120.398 121.877 114.555 121.6 113.218 121.434C112.477 121.341 111.264 121.191 110.523 121.099C109.782 121.007 107.962 120.857 106.48 120.765C103.798 120.599 102.559 120.43 101.595 120.1C101.317 120.005 99.914 119.854 98.4781 119.764C97.0421 119.675 95.6399 119.513 95.3619 119.405C94.6739 119.138 92.174 118.738 91.192 118.737C90.7519 118.737 89.6895 118.551 88.8336 118.324C87.9766 118.098 86.4622 117.83 85.4664 117.729C84.4715 117.63 83.3341 117.411 82.939 117.243C82.545 117.075 81.627 116.884 80.898 116.819C80.1701 116.754 78.9861 116.515 78.2681 116.289C77.5492 116.062 76.4773 115.829 75.8863 115.77C75.2953 115.711 74.3279 115.484 73.7379 115.265C73.1481 115.047 72.3695 114.868 72.0074 114.868C71.2294 114.868 71.0835 114.615 71.0425 113.186C71.0275 112.677 70.8329 111.618 70.6099 110.832C70.3669 109.978 70.1612 108.691 70.0982 107.636C70.0402 106.665 69.8911 105.531 69.7672 105.114C69.4142 103.929 69.1846 102.185 69.0836 99.9004C69.0326 98.7445 68.9139 97.4951 68.8209 97.125C68.3909 95.411 68.0295 90.0469 67.9175 83.6689C67.8926 82.2797 67.7952 81.1651 67.6802 80.9482C67.4183 80.4607 67.4105 67.3318 67.6705 66.8848C67.7684 66.7164 67.8729 65.4303 67.9049 64.0264C68.0079 59.5354 68.2949 53.9386 68.4859 52.7246C68.8748 50.255 69.0203 48.957 69.1363 46.9043C69.2153 45.5213 69.3359 44.6868 69.4849 44.5068Z" fill="#000000"/>
<path d="M239.586 62.8398C240.278 62.2629 241.304 61.9191 241.481 62.2051C241.556 62.3265 241.67 63.2322 241.735 64.2178C241.799 65.2035 241.926 66.3513 242.016 66.7676C242.107 67.1836 242.248 68.0552 242.331 68.7021C242.415 69.3498 242.525 70.0305 242.576 70.2158C242.628 70.4008 242.718 72.293 242.776 74.4199C243.057 84.7149 242.735 94.0163 242.054 95.2754C241.954 95.4609 241.818 96.4168 241.752 97.3994C241.687 98.3822 241.502 99.6896 241.342 100.305C241.074 101.332 240.977 101.479 240.16 102.092C239.635 102.486 239.084 102.759 238.815 102.759C238.564 102.759 238.105 102.946 237.794 103.176C237.482 103.405 236.834 103.706 236.351 103.847C235.869 103.987 235.384 104.21 235.273 104.344C235.162 104.477 234.704 104.665 234.255 104.761C233.806 104.857 233.156 105.127 232.81 105.361C232.465 105.595 232.014 105.786 231.809 105.786C231.603 105.786 231.009 106.013 230.488 106.291C230.032 106.533 229.53 106.737 229.285 106.784L229.109 106.806C228.865 106.853 228.363 107.057 227.907 107.3C227.386 107.578 226.753 107.805 226.501 107.805C226.249 107.805 225.862 107.943 225.641 108.112C225.144 108.493 224.79 108.626 223.751 108.824C223.304 108.909 222.733 109.123 222.484 109.301C222.234 109.478 221.584 109.706 221.038 109.806C220.493 109.907 219.796 110.137 219.489 110.318C219.182 110.499 218.467 110.731 217.901 110.834C217.336 110.936 216.596 111.161 216.255 111.333C215.915 111.505 215.182 111.736 214.626 111.846C214.07 111.957 213.388 112.165 213.11 112.31C212.832 112.454 212.045 112.67 211.36 112.79C210.675 112.911 209.82 113.162 209.461 113.349C209.101 113.536 208.374 113.734 207.843 113.788C207.312 113.843 206.416 114.066 205.851 114.283C205.287 114.5 204.342 114.732 203.753 114.798C203.164 114.865 202.261 115.09 201.748 115.297C201.234 115.505 200.283 115.729 199.634 115.794C198.986 115.86 198.125 116.056 197.721 116.229C197.318 116.403 196.294 116.631 195.447 116.733C194.6 116.835 193.363 117.101 192.699 117.323C192.033 117.546 191.089 117.727 190.594 117.729C190.099 117.73 188.714 117.958 187.516 118.234C186.318 118.51 184.963 118.736 184.505 118.736C184.048 118.736 182.678 118.957 181.462 119.225C180.245 119.494 178.455 119.759 177.483 119.814C176.51 119.869 175.297 119.993 174.787 120.088C173.478 120.333 172.204 120.536 170.766 120.729C168.692 121.008 168.589 120.773 170.155 119.325C170.755 118.77 173.692 115.939 176.681 113.034C183.886 106.031 186.47 103.591 188.585 101.793C188.993 101.445 189.675 100.82 190.101 100.403C190.526 99.9863 191.557 99.0427 192.391 98.3057C193.224 97.5697 194.372 96.5491 194.94 96.0371C195.508 95.5251 196.112 94.9925 196.282 94.8545C197.069 94.2112 202.008 89.9224 202.161 89.749C202.253 89.643 202.779 89.2158 203.33 88.7998C203.88 88.3838 204.486 87.8901 204.677 87.7031C204.868 87.515 205.555 86.9387 206.204 86.4219C206.852 85.9049 207.67 85.2261 208.02 84.9131C208.371 84.5991 208.961 84.1159 209.332 83.8389C209.703 83.5609 210.605 82.8421 211.335 82.2412C212.066 81.6402 212.938 80.9586 213.273 80.7266C214.115 80.1456 215.207 79.302 216.595 78.1621C217.243 77.6317 217.875 77.1963 218.001 77.1953C218.126 77.1953 218.328 77.0557 218.449 76.8857C218.57 76.7148 218.829 76.4907 219.025 76.3877C219.221 76.2835 219.929 75.7415 220.599 75.1826C221.268 74.6249 221.893 74.1683 221.988 74.168C222.083 74.168 222.398 73.9752 222.689 73.7393C224.208 72.5063 224.7 72.1504 224.888 72.1504C225.002 72.1501 225.274 71.9603 225.491 71.7295C225.708 71.4979 225.956 71.3091 226.041 71.3086C226.126 71.3086 226.506 71.0437 226.885 70.7197C227.264 70.3969 227.662 70.1318 227.77 70.1318C227.878 70.1317 228.101 69.9817 228.267 69.7998C228.433 69.6169 228.729 69.4165 228.925 69.3545C229.122 69.2931 229.58 68.9885 229.944 68.6777C230.308 68.3678 230.676 68.1143 230.762 68.1143C230.848 68.1138 231.143 67.9239 231.418 67.6934C231.693 67.4624 232.024 67.2735 232.152 67.2734C232.281 67.2734 232.635 67.056 232.94 66.791C233.244 66.5261 233.682 66.2508 233.914 66.1787C234.146 66.1077 234.549 65.8713 234.811 65.6523C235.073 65.4338 235.346 65.2556 235.419 65.2549C235.492 65.2549 235.838 65.028 236.188 64.75C236.494 64.5075 236.837 64.3032 237.009 64.2559L237.134 64.2344C237.306 64.1871 237.65 63.9835 237.957 63.7412C238.308 63.4632 238.711 63.2363 238.853 63.2363C238.994 63.2362 239.324 63.0577 239.586 62.8398Z" fill="#000000"/>
<path d="M10.1617 27.2568C10.2747 26.417 10.5892 26.2312 11.1021 26.7002C11.3061 26.8861 11.6622 27.0951 11.8941 27.1631C12.1251 27.2321 12.6141 27.5046 12.98 27.7705C13.3459 28.0364 13.7617 28.2566 13.9058 28.2588C14.0498 28.2618 14.46 28.4849 14.817 28.7539C15.1729 29.0239 15.6799 29.2906 15.942 29.3486C16.2039 29.4056 16.5097 29.5633 16.6207 29.6973C16.7317 29.8303 17.2254 30.0562 17.7164 30.1992C18.2063 30.3412 18.7875 30.5976 19.0054 30.7695C19.2235 30.9405 19.7124 31.1636 20.0904 31.2656C20.4683 31.3677 20.9583 31.586 21.1793 31.751C21.3993 31.9159 21.9577 32.1466 22.4195 32.2646C22.8815 32.3826 23.3752 32.5811 23.5152 32.7061C23.6555 32.8311 24.2251 33.0618 24.7799 33.2197C25.3358 33.3767 26.0194 33.6397 26.2974 33.8027C26.5745 33.9657 27.1052 34.1528 27.4761 34.2168C27.8461 34.2818 28.4643 34.5078 28.8482 34.7197C29.2312 34.9327 29.9139 35.1595 30.3638 35.2256C30.8138 35.2906 31.485 35.5175 31.855 35.7295C32.226 35.9415 32.958 36.1684 33.482 36.2324C34.0058 36.2954 34.7255 36.4958 35.0816 36.6768C35.4386 36.8587 36.2038 37.0828 36.7838 37.1748C37.3637 37.2678 38.1242 37.4919 38.4732 37.6729C38.8213 37.8548 39.7185 38.1102 40.4654 38.2402C41.2123 38.3702 42.0602 38.5991 42.3502 38.748C42.6393 38.897 43.451 39.1003 44.1558 39.1973C44.7717 39.283 45.7236 39.4965 46.4156 39.6992L46.9615 39.8672C47.5951 40.0538 48.2952 40.1953 48.6129 40.1953C48.9758 40.1953 49.8949 40.3919 50.6549 40.6309C51.4158 40.8708 52.6889 41.1338 53.4859 41.2148C54.2819 41.2968 55.3699 41.5133 55.9029 41.6963C56.4369 41.8793 57.3464 42.0739 57.9254 42.1289C59.4542 42.2749 61.0574 42.5457 61.9244 42.8047C62.3414 42.9287 63.0003 43.0797 63.3883 43.1396C64.395 43.2946 64.5317 43.529 64.1959 44.5137C64.0299 45.0036 63.8535 46.3908 63.7525 48.0156C63.6615 49.495 63.5201 50.9568 63.439 51.2656C63.358 51.5736 63.3315 51.9267 63.3795 52.0518C63.4275 52.1768 63.3505 52.7284 63.2095 53.2773C62.7626 55.0221 62.5221 62.1461 62.5181 73.748C62.5141 85.263 62.763 92.9127 63.1929 94.4336C63.3239 94.8966 63.4274 95.5402 63.4224 95.8643C63.4025 97.2415 63.8183 101.464 64.1353 103.095C64.3233 104.067 64.5778 105.883 64.6998 107.132C64.8218 108.381 65.0809 109.968 65.2759 110.66C65.8659 112.757 65.714 113.345 64.691 112.918C64.38 112.788 63.9138 112.681 63.6558 112.68C63.3978 112.679 62.8091 112.502 62.3453 112.287C61.8823 112.071 61.1 111.842 60.608 111.777C60.1161 111.712 59.3204 111.483 58.8394 111.268C58.3594 111.053 57.4727 110.786 56.8707 110.673C56.268 110.561 55.6214 110.37 55.4322 110.249C55.2432 110.128 54.6365 109.937 54.0836 109.825C53.5316 109.712 52.8527 109.485 52.5748 109.318C52.3664 109.194 51.9309 109.035 51.4918 108.917L50.6265 108.712C50.2601 108.613 49.8964 108.485 49.6646 108.373L49.4205 108.244C49.096 108.088 48.5132 107.904 48.0269 107.809C47.4712 107.701 46.8085 107.464 46.5543 107.284C46.3003 107.103 45.7031 106.882 45.2271 106.792C44.7511 106.701 44.1245 106.483 43.8355 106.307C43.5464 106.13 42.969 105.899 42.5523 105.794C42.1353 105.688 41.4527 105.425 41.0357 105.207C40.6187 104.99 39.9579 104.76 39.567 104.697C39.1762 104.633 38.6816 104.443 38.4664 104.275C38.2524 104.107 37.7653 103.885 37.3853 103.783C37.0053 103.681 36.3626 103.417 35.9586 103.197C35.5546 102.977 34.9507 102.749 34.6158 102.691C34.2808 102.632 33.8706 102.434 33.7047 102.251C33.5386 102.068 33.2357 101.918 33.0318 101.918C32.8276 101.918 32.2514 101.701 31.7525 101.438C31.2525 101.173 30.5537 100.863 30.1988 100.747C29.8438 100.632 29.2381 100.357 28.8521 100.137C28.4661 99.9157 28.0275 99.7354 27.8775 99.7344C27.7281 99.733 27.3313 99.5461 26.9966 99.3193C26.6616 99.0923 26.0635 98.8198 25.6675 98.7148C25.2727 98.6098 24.7969 98.3952 24.6119 98.2383C24.4731 98.1198 24.1824 97.9605 23.8892 97.8369L23.3131 97.6182C23.0205 97.4935 22.7302 97.3324 22.5914 97.2109C22.4054 97.0489 22.0589 96.8714 21.8199 96.8154C21.6415 96.7734 21.3382 96.6362 21.0611 96.4775L20.5357 96.1514C20.3062 96.0188 20.0606 95.8997 19.8843 95.8389L19.691 95.7803C19.4436 95.6949 19.0604 95.4972 18.7769 95.3047C18.4529 95.0857 17.9906 94.8569 17.7486 94.7969C17.5075 94.7357 17.0954 94.5079 16.8336 94.2891C16.5716 94.0701 16.168 93.8356 15.9371 93.7676C15.7051 93.6986 15.2503 93.4697 14.9263 93.2588C14.2904 92.8438 13.8168 92.5862 12.4449 91.9062C11.9605 91.6665 11.5241 91.4036 11.4732 91.3232C11.4231 91.2422 10.9665 90.9859 10.4586 90.7539C9.95074 90.5219 9.53571 90.2579 9.53571 90.168C9.53563 90.077 9.26791 89.9146 8.94196 89.8076C8.61497 89.6996 8.14119 89.4395 7.88923 89.2285C7.63633 89.0176 7.24035 88.7879 7.00934 88.7158C6.77734 88.6438 6.38903 88.4198 6.14704 88.2178C5.90408 88.0158 5.46825 87.7519 5.17829 87.6318C4.8883 87.5118 4.64997 87.3448 4.64997 87.2598C4.64934 87.1746 4.32762 86.9562 3.93415 86.7734C3.24025 86.4505 2.65607 86.0761 1.4654 85.1914C1.14982 84.9567 0.791913 84.7642 0.671454 84.7637C0.123464 84.7637 0.0205317 84.0507 0.0015318 80.0547C-0.00946087 77.8808 0.039918 74.2104 0.110907 71.8984C0.244903 67.5306 0.432063 65.3971 0.730047 64.8301C0.826044 64.647 0.992192 63.2561 1.09919 61.7393C1.20619 60.2223 1.32865 58.9225 1.37165 58.8525C1.52681 58.6011 2.09294 55.394 2.19196 54.2012C2.24796 53.5322 2.44927 52.5933 2.63825 52.1143C2.82725 51.6353 3.05604 50.6526 3.14704 49.9316C3.23708 49.2116 3.49913 48.0476 3.72809 47.3467C3.95705 46.6447 4.14509 45.7836 4.14509 45.4316C4.14522 45.0805 4.33316 44.4226 4.56208 43.9697C4.792 43.5167 5.05598 42.6043 5.14802 41.9404C5.24099 41.2766 5.46886 40.4744 5.65583 40.1572C5.84283 39.8412 6.04412 39.2089 6.10212 38.7529C6.15201 38.3548 6.32949 37.7722 6.51716 37.3682L6.67927 37.0459C6.86747 36.6444 7.04782 36.0756 7.10212 35.6934C7.16311 35.2565 7.38821 34.5804 7.60016 34.1914C7.81316 33.8024 8.04198 33.1577 8.10798 32.7607C8.17403 32.3638 8.40662 31.6849 8.62556 31.252C8.84355 30.82 9.10182 30.1146 9.19782 29.6846C9.29487 29.2556 9.52934 28.6944 9.72028 28.4365C9.91018 28.1794 10.1087 27.6486 10.1617 27.2568Z" fill="#000000"/>
<path d="M260.83 54.7324C261.983 54.3474 266.592 54.3995 267.966 54.8145C268.555 54.9914 269.466 55.2222 269.992 55.3271C270.518 55.4331 271.038 55.6268 271.149 55.7598C271.259 55.8927 271.639 56.0798 271.992 56.1748C272.345 56.2698 272.962 56.6145 273.362 56.9395C274.548 57.9035 276.367 59.7263 276.609 60.1953C276.733 60.4343 276.991 60.7724 277.183 60.9453C277.374 61.1174 277.619 61.5248 277.726 61.8496C277.833 62.1746 278.101 62.7062 278.322 63.0312C278.542 63.3552 278.722 63.7729 278.722 63.96C278.722 64.147 278.908 64.6169 279.136 65.0039C279.363 65.3919 279.621 66.1552 279.709 66.7012C279.797 67.2462 280.035 68.1852 280.238 68.7861C280.649 70.0022 280.986 73.6315 280.744 74.2305C280.516 74.7916 275.54 79.5283 273.539 81.0908C273.144 81.3999 271.997 82.3521 270.991 83.208C269.985 84.0628 269.08 84.7633 268.979 84.7637C268.879 84.7637 268.661 84.9004 268.495 85.0674C268.086 85.48 265.689 87.2901 265.002 87.707C264.367 88.091 263.767 88.5244 263 89.1533C262.707 89.3943 262.266 89.6962 262.021 89.8262C261.776 89.9552 261.022 90.429 260.346 90.8779C259.669 91.3269 258.998 91.7361 258.854 91.7861C258.71 91.8361 258.421 92.0308 258.212 92.2197C257.753 92.6317 256.815 93.2142 255.897 93.6562C255.527 93.8342 254.962 94.177 254.643 94.417C254.324 94.658 253.938 94.8555 253.785 94.8555C253.632 94.8557 253.362 95.0161 253.186 95.2129C253.009 95.4099 252.562 95.7165 252.191 95.8945C251.821 96.0726 251.063 96.4732 250.507 96.7852C249.951 97.0981 249.192 97.4997 248.82 97.6787C248.448 97.8577 248.04 98.1283 247.915 98.2793C247.608 98.6489 247.053 98.6357 247.056 98.2598C247.066 97.3145 247.43 94.6576 247.639 94.0137C247.964 93.0077 248.23 87.7954 248.231 82.4092C248.232 77.2998 247.954 70.4789 247.708 69.5615C247.612 69.2015 247.504 68.5569 247.468 68.1309C247.193 64.8112 246.848 62.1075 246.556 60.9873C246.148 59.421 246.168 59.6458 246.413 59.4023C246.524 59.2913 246.699 59.2002 246.802 59.2002C246.905 59.1998 247.245 59.012 247.556 58.7822C247.868 58.5512 248.395 58.3158 248.726 58.2578C249.057 58.1998 249.655 57.9748 250.055 57.7568C250.455 57.5389 251.061 57.31 251.402 57.249C251.744 57.187 252.337 56.9554 252.721 56.7334C253.106 56.5114 253.826 56.2845 254.322 56.2305C254.818 56.1755 255.591 55.9504 256.039 55.7305C256.581 55.4655 257.403 55.2703 258.482 55.1523C259.376 55.0544 260.432 54.8654 260.83 54.7324Z" fill="#000000"/>
<path d="M73.9468 22.2178C74.1468 22.0518 74.2987 22.0635 74.7056 22.2734C74.9856 22.4184 75.2761 22.6377 75.3502 22.7617C75.4241 22.8847 75.6141 23.0566 75.772 23.1426C75.93 23.2276 76.4608 23.6492 76.9508 24.0771C80.8558 27.4841 82.4501 28.8451 82.8121 29.0771C83.2851 29.3812 83.9075 29.9463 87.7359 33.5518C89.2086 34.9394 90.5821 36.1887 90.7886 36.3271C90.9946 36.4661 91.814 37.2228 92.608 38.0088C93.4017 38.7945 94.4024 39.7553 94.8326 40.1436C96.0646 41.2546 95.873 41.5549 94.149 41.2119C93.704 41.1229 91.8242 40.971 89.9722 40.873C86.2719 40.6771 83.3739 40.3944 82.981 40.1914C82.842 40.1194 81.4009 39.9732 79.7799 39.8672C78.1589 39.7602 75.8472 39.4887 74.6422 39.2627C73.4382 39.0377 71.96 38.8336 71.358 38.8086C70.326 38.7676 70.2602 38.7417 70.2222 38.3447C70.1993 38.1139 70.2553 37.8005 70.3472 37.6484C70.5802 37.2594 71.015 35.1468 71.19 33.5518C71.271 32.8118 71.4922 31.7437 71.6812 31.1787C71.8702 30.6137 72.0914 29.5512 72.1744 28.8184C72.2564 28.0854 72.4463 27.247 72.5963 26.957C72.7473 26.6659 72.9845 25.6597 73.1265 24.7188C73.3915 22.9579 73.5179 22.5728 73.9468 22.2178Z" fill="#000000"/>
<path d="M34.9722 0C34.9722 0.545 36.0372 0.894758 38.5552 1.17676C39.4921 1.28276 40.3237 1.48927 40.8287 1.74121C41.2666 1.96019 41.9578 2.18993 42.3629 2.25195C42.7679 2.31395 43.4201 2.55227 43.8101 2.78027C44.2001 3.00919 44.7099 3.19528 44.9439 3.19531C45.1769 3.19531 45.626 3.3681 45.94 3.5791C46.254 3.7901 46.8521 4.0616 47.2691 4.18359C47.6861 4.30459 48.1778 4.5401 48.3638 4.7041C48.5488 4.86905 49.0037 5.09783 49.3736 5.21387C49.7446 5.32887 50.2003 5.55577 50.3853 5.71777C50.5713 5.87971 50.9967 6.10098 51.3326 6.20801C51.6694 6.31596 52.0748 6.54766 52.2349 6.72363C52.3949 6.89963 52.7424 7.09239 53.0054 7.15039C53.2686 7.20763 53.7643 7.47723 54.106 7.74805C54.4467 8.0188 54.8293 8.24084 54.9547 8.24121C55.0806 8.24121 55.5307 8.50614 55.9556 8.83008C56.3796 9.15307 56.8239 9.41795 56.942 9.41797C57.0589 9.41797 57.2926 9.57001 57.4595 9.75488C57.6275 9.93988 57.8601 10.0908 57.9761 10.0908C58.0923 10.091 58.4882 10.3369 58.857 10.6367C59.504 11.1647 60.1719 11.6029 61.0728 12.0879C61.3098 12.2159 61.6934 12.4912 61.9244 12.7002C62.1564 12.9092 62.5733 13.2055 62.8511 13.3584C63.388 13.6553 63.7814 13.934 65.355 15.1377C65.898 15.5527 66.6272 16.0825 66.9742 16.3145C68.5359 17.3532 68.8378 17.6081 69.1158 18.1221C69.3968 18.6391 69.3966 18.6968 69.1236 19.2148C68.9647 19.5148 68.7862 20.2146 68.7261 20.7695C68.6661 21.3245 68.4374 22.2303 68.2174 22.7803C67.9964 23.3312 67.7705 24.3148 67.7144 24.9668C67.6574 25.6188 67.4637 26.4932 67.2847 26.9092C67.1058 27.3253 66.8513 28.4609 66.7193 29.4316C66.5863 30.4026 66.3338 31.652 66.1588 32.207C65.9838 32.7621 65.7492 34.1244 65.6383 35.2344C65.5073 36.5449 65.35 37.3407 65.189 37.5049C64.824 37.8779 63.3186 37.7951 61.2496 37.2871C60.2778 37.0482 58.9295 36.8051 58.2545 36.7471C57.5785 36.6891 56.5931 36.4963 56.064 36.3193C55.5351 36.1413 54.3901 35.9135 53.5201 35.8135C52.6491 35.7135 51.584 35.4923 51.1509 35.3213C50.7189 35.1513 49.9908 34.9623 49.5328 34.9023C48.0211 34.7014 46.8543 34.442 46.3912 34.2051C46.1402 34.0761 45.3436 33.89 44.6226 33.791C43.9007 33.692 42.9759 33.4641 42.567 33.2842C42.1581 33.1052 41.2864 32.8764 40.6295 32.7754C39.9737 32.6744 39.1353 32.4475 38.7681 32.2715C38.4011 32.0945 37.654 31.879 37.109 31.791C36.5631 31.703 35.8463 31.4723 35.5162 31.2773C35.1852 31.0824 34.5291 30.8792 34.0592 30.8252C33.5882 30.7722 32.8609 30.551 32.4429 30.335C32.0251 30.119 31.2854 29.8684 30.7994 29.7764C30.3134 29.6844 29.7077 29.4593 29.4537 29.2773C29.1997 29.0954 28.5512 28.8685 28.0123 28.7725C27.4743 28.6775 26.8458 28.4524 26.6177 28.2725C26.3887 28.0935 25.8818 27.8941 25.4908 27.8311C25.1008 27.767 24.3915 27.4955 23.9175 27.2275C23.4429 26.9598 22.9045 26.7415 22.7203 26.7412C22.5363 26.7412 22.128 26.5684 21.814 26.3574C21.5 26.1464 20.9019 25.8739 20.4849 25.7529C20.0679 25.6309 19.5752 25.3955 19.3902 25.2285C19.2052 25.0625 18.8045 24.8745 18.5015 24.8105C18.1976 24.7464 17.7427 24.5233 17.4908 24.3145C17.2378 24.1045 16.8286 23.8832 16.5806 23.8232C16.3336 23.7631 15.9168 23.5362 15.6549 23.3193C15.3929 23.1013 14.9637 22.8716 14.7017 22.8076C14.4386 22.7434 13.9136 22.4017 13.5338 22.0479C13.3039 21.834 13.0741 21.6201 12.8443 21.4053C12.9423 21.0933 13.0412 20.7798 13.1392 20.4668C13.3022 19.9519 13.5424 19.44 13.6744 19.3311C13.8063 19.2218 14.0057 18.8201 14.1197 18.4385C14.2327 18.0565 14.5014 17.484 14.7144 17.167C14.9284 16.85 15.1506 16.4009 15.2086 16.1689C15.2666 15.9369 15.4887 15.4908 15.7027 15.1768C15.9156 14.8629 16.1406 14.4423 16.2008 14.2412C16.2618 14.0392 16.4441 13.7241 16.6041 13.5391C16.7248 13.4003 16.9022 13.0886 17.0513 12.7656L17.3248 12.125C17.4756 11.8023 17.6577 11.4904 17.7838 11.3516C17.9507 11.1665 18.1454 10.8267 18.2154 10.5947C18.2845 10.3637 18.52 9.96106 18.7388 9.7002C18.9578 9.4382 19.1373 9.08976 19.1373 8.92676C19.1374 8.76273 19.2988 8.48451 19.4957 8.30859C19.6926 8.1326 19.9984 7.68635 20.1724 7.31641C20.6244 6.35941 21.1865 5.62405 22.4215 4.37305C23.8283 2.94724 24.475 2.44816 25.233 2.20117C25.575 2.09017 26.0373 1.85471 26.2613 1.67871C26.4856 1.50376 27.1701 1.2796 27.7838 1.18164C28.3968 1.08364 29.0794 0.935539 29.2984 0.852539C29.5174 0.768654 29.8403 0.713528 30.0162 0.728516C30.2121 0.745428 30.3854 0.610866 30.4644 0.37793C30.5074 0.251996 30.5494 0.125934 30.5924 0H34.9722Z" fill="#000000"/>
<path d="M1168.32 77.4126C1180.33 75.7088 1188.23 79.5477 1197.21 86.807L1197.72 82.0155L1207.96 81.9498C1208 83.1635 1208.03 84.3782 1208.05 85.5932C1208.15 97.66 1208.19 110.105 1207.98 122.139C1207.64 142.237 1211.78 162.465 1195.82 177.985C1182.25 191.175 1170.89 190.506 1153.6 190.605L1153.59 179.93C1159.86 180.001 1166.73 180.347 1172.8 179.027C1173.38 178.948 1174.23 178.549 1174.81 178.356C1186.58 174.395 1194.16 165.072 1196.91 153.077C1183.02 166.134 1163.7 165.603 1148.04 155.392C1137.24 148.346 1131.13 136.483 1129.89 123.734C1128.75 112.309 1132.22 100.9 1139.54 92.0605C1146.49 83.6499 1157.55 78.4188 1168.32 77.4126ZM1169.73 152.205C1181.42 152.448 1187.75 149.541 1196.16 141.495C1196.58 141.088 1196.99 140.661 1197.37 140.216L1197.32 99.3571C1189.02 90.6215 1180.78 87.1845 1168.76 88.0066C1149.81 91.5229 1138.51 106.49 1141.09 125.78C1142.91 139.402 1156.13 151.342 1169.73 152.205Z" fill="#000000"/>
<path d="M971.17 77.2584C994.752 74.3459 1016.21 91.1703 1019.04 114.792C1021.87 138.413 1005 159.842 981.397 162.598C957.905 165.34 936.62 148.541 933.803 125.03C930.987 101.52 947.695 80.1572 971.17 77.2584ZM980.907 151.674C998.463 149.174 1010.64 132.865 1008.07 115.299C1005.51 97.7336 989.165 85.6054 971.63 88.2496C954.197 90.8785 942.168 107.123 944.725 124.586C947.277 142.05 963.453 154.159 980.907 151.674Z" fill="#000000"/>
<path d="M462.977 79.1029C474.554 77.1386 488.463 80.9771 494.859 91.4496L494.905 81.0697L502.695 81.0654L502.713 159.139L494.866 159.128L494.674 148.588C492.07 152.996 488.182 156.123 483.556 158.205C470.788 163.958 454.142 161.326 443.189 152.803C434.721 146.348 429.19 136.765 427.832 126.197C424.928 102.814 439.161 82.088 462.977 79.1029ZM466.982 153.483C477.112 153.54 485.296 150.732 492.619 143.435C493.384 142.659 494.125 141.861 494.842 141.041L494.872 114.033C494.873 110.354 495.053 102.176 494.486 98.7676C489.796 92.3946 481.42 88.0101 473.679 86.8369C470.637 86.3846 467.547 86.3603 464.498 86.7643C455.443 88.1308 447.603 92.3024 442.085 99.7642C436.691 107.007 434.394 116.099 435.7 125.039C438.131 141.338 450.94 151.994 466.982 153.483Z" fill="#000000"/>
<path d="M1078.15 77.3958C1079.38 77.3119 1080.62 77.2599 1081.86 77.2396C1089.37 77.1711 1096.61 79.7533 1102.01 85.0599C1105.87 88.9235 1108.61 93.7756 1109.91 99.0875C1111.57 105.785 1111.07 118.204 1111.06 125.504C1111 137.291 1111.02 149.079 1111.12 160.866C1107.29 160.735 1103.89 160.787 1100.06 160.878C1100.6 144.959 1099.85 128.643 1100.18 112.692C1100.24 110.047 1100.2 107.362 1099.95 104.731C1098.74 91.8429 1086.53 85.5672 1074.66 88.5024C1069.93 89.6351 1067.51 90.8975 1063.3 93.1147C1061.68 94.6437 1059.97 95.9957 1058.36 97.5926C1047.13 108.753 1048.58 122.875 1048.63 137.311L1048.67 160.796C1045.2 160.703 1041.64 160.807 1038.17 160.866C1038.94 135.311 1038.24 105.61 1038.22 79.7633L1048.62 79.7736C1048.64 84.6401 1048.66 89.223 1048.94 94.0789C1055.47 84.8073 1066.89 78.4986 1078.15 77.3958Z" fill="#000000"/>
<path d="M654.896 40.3152C657.242 40.4122 660.118 40.3322 662.508 40.3318L662.396 91.0685C673.62 76.7805 695.588 74.1296 709.061 86.2647C719.046 95.2589 717.099 111.508 717.072 123.692L717.087 159.158L709.224 159.145C709.462 141.558 709.241 123.45 709.244 105.821C707.573 80.5224 675.079 82.2633 662.524 99.2095C662.167 118.854 662.475 139.43 662.471 159.149L654.877 159.134L654.896 40.3152Z" fill="#000000"/>
<path d="M818.341 57.6943L828.896 57.647C829.211 64.0237 828.922 73.1832 828.913 79.7693C840.133 79.7857 852.819 80.0906 863.923 79.6546L863.966 90.3996C852.269 90.3647 840.572 90.3937 828.875 90.4867C829.092 104.586 828.7 118.741 828.986 132.841C829.211 144.162 837.546 152.561 849.018 151.846C851.945 151.28 854.523 149.933 857.284 149.083C859.747 148.325 863.024 155.428 863.288 157.421C861.686 160.606 853.667 161.778 850.513 162.07C842.758 162.787 834.47 160.895 828.444 155.76C824.366 152.319 821.366 147.774 819.803 142.671C816.862 132.884 818.997 102.471 818.047 90.4214L811.02 90.4304C811.135 86.865 811.037 83.3807 810.965 79.8177L817.919 79.7291C818.563 72.7163 818.26 64.8441 818.341 57.6943Z" fill="#000000"/>
<path d="M793.255 77.0372C793.92 76.9261 793.69 76.9259 794.359 77.2907C794.802 79.4877 794.802 84.9088 794.862 87.3738C793.928 87.4656 792.995 87.5624 792.062 87.6652C783.893 88.5667 769.55 90.783 764.062 97.2764C757.293 105.287 774.851 113.609 780.101 117.961C789.233 125.536 793.17 134.947 784.997 145.184C774.472 157.715 755.421 160.817 740.066 162.496C738.739 162.541 739.106 162.719 738.171 161.974C737.529 159.412 737.771 154.92 737.767 152.061C738.402 152.066 739.037 152.05 739.672 152.013C754.366 151.095 796.766 139.737 768.63 122.952C761.828 118.894 752.091 111.899 751.678 103.364C750.646 82.0384 777.715 78.2966 793.255 77.0372Z" fill="#000000"/>
<path d="M921.544 77.3839C929.133 76.5783 927.173 81.7681 926.815 87.662C917.159 88.0515 908.922 90.0234 901.818 97.1801C897.736 101.3 894.868 106.468 893.53 112.115C892.013 118.249 892.444 128.171 892.465 134.753L892.576 160.865C889.043 160.697 885.136 160.805 881.578 160.829L881.509 152.55L881.497 106.299C881.492 98.2561 881.173 87.5447 881.791 79.757L892.512 79.7765C892.678 84.6832 892.512 89.5955 892.009 94.4791C892.721 93.459 893.458 92.4535 894.212 91.4641C899.918 84.0617 912.301 78.5677 921.544 77.3839Z" fill="#000000"/>
<path d="M591.869 59.0219L599.022 58.9412L599.094 81.0723L634.464 81.0476C634.401 83.8441 634.318 86.1727 634.608 88.9778C624.908 88.6237 608.574 88.6386 598.976 89.1019C599.043 98.7344 599.054 108.368 599.008 118C598.997 133.631 597.407 148.617 616.306 153.063C622.293 153.419 624.206 152.893 629.583 150.195C631.257 152.465 632.537 154.583 633.622 157.183C629.241 159.712 624.263 161.022 619.206 160.977C611.822 160.967 604.458 158.184 599.219 152.919C596.038 149.737 593.783 145.749 592.695 141.381C591.294 135.742 591.752 125.505 591.751 119.286L591.745 89.0422C588.981 88.8622 586.749 88.9599 584.005 89.0721L583.985 81.0766L591.75 81.0655C591.687 73.7175 591.726 66.3689 591.869 59.0219Z" fill="#000000"/>
<path d="M572.123 78.6893C572.735 78.6192 573.034 78.7465 573.62 78.9203C574.461 80.5667 574.085 84.3478 574.018 86.3235C564.817 86.8393 556.454 89.4913 549.809 96.1561C545.447 100.605 542.346 106.137 540.827 112.182C539.012 119.48 539.708 149.592 539.733 159.138L531.922 159.141L531.928 144.871L531.95 81.0666L539.723 81.0448L539.679 99.0452C547.229 86.37 557.846 80.6485 572.123 78.6893Z" fill="#000000"/>
<path d="M336 113.308C342.187 90.5187 356.817 76.9771 381.741 78.9441C399.153 80.3183 411.232 91.6411 417.045 107.815C409.551 108.254 392.615 112.024 384.15 113.486L357.738 118.016C353.688 118.702 347.3 119.521 343.519 120.536C344.542 130.418 347.687 139.733 355.957 146.019C368.765 155.755 380.61 155.029 394.608 148.932C396.406 151.415 397.255 153.011 398.682 155.716C377.875 166.629 352.28 161.325 340.621 139.736C338.438 135.696 337.272 131.471 336 127.092V113.308ZM344.361 112.492C351.115 111.041 366.562 108.235 373.394 107.365C384.168 105.346 394.923 103.732 405.567 101.762C399.117 93.4812 392.496 88.3834 381.644 86.7208C379.854 86.4465 374.645 86.3249 372.937 86.7677C356.819 89.2341 349.772 98.1319 344.361 112.492Z" fill="#000000"/>
</svg>
